{"glyphs":{"0":{"ha":729,"x_min":36,"x_max":693,"o":"m 364 -11 q 119 115 203 -11 q 36 485 36 240 q 119 856 36 731 q 364 981 203 981 q 609 855 525 981 q 693 485 693 729 q 609 115 693 240 q 364 -11 525 -11 m 225 485 q 259 236 225 315 q 364 157 293 157 q 470 235 436 157 q 504 485 504 314 q 470 733 504 656 q 364 811 436 811 q 258 733 292 811 q 225 485 225 656 z "},"1":{"ha":374,"x_min":15,"x_max":313,"o":"m 132 0 l 132 800 l 15 800 l 15 969 l 313 969 l 313 0 l 132 0 z "},"2":{"ha":606,"x_min":22,"x_max":582,"o":"m 22 0 l 22 113 l 351 585 q 388 656 379 625 q 397 711 397 686 q 374 784 397 754 q 303 814 351 814 q 226 780 251 814 q 201 699 201 746 q 206 657 201 678 l 29 657 q 25 711 25 682 q 97 907 25 833 q 304 981 169 981 q 509 912 436 981 q 582 725 582 843 q 550 573 582 642 q 475 447 518 504 l 256 157 l 579 157 l 579 0 l 22 0 z "},"3":{"ha":668,"x_min":28,"x_max":640,"o":"m 333 -11 q 115 65 197 -11 q 28 276 32 142 l 208 276 q 247 188 213 219 q 333 157 282 157 q 426 194 390 157 q 461 300 461 231 q 422 401 461 364 q 290 438 383 438 l 179 438 l 179 538 l 363 800 l 53 800 l 53 969 l 601 969 l 601 857 l 403 575 q 578 488 515 561 q 640 293 640 414 q 558 72 640 154 q 333 -11 476 -11 z "},"4":{"ha":718,"x_min":36,"x_max":688,"o":"m 414 0 l 414 163 l 36 163 l 36 275 l 315 969 l 596 969 l 596 329 l 688 329 l 688 163 l 596 163 l 596 0 l 414 0 m 238 325 l 419 325 l 431 829 l 428 829 l 238 325 z "},"5":{"ha":694,"x_min":39,"x_max":656,"o":"m 340 -7 q 185 27 253 -7 q 78 124 117 61 q 39 276 39 188 l 218 276 q 257 192 221 224 q 343 161 293 161 q 434 197 393 161 q 475 314 475 233 q 434 431 475 396 q 340 467 393 467 q 267 447 300 467 q 215 390 235 428 l 50 390 l 69 969 l 618 969 l 618 800 l 240 800 l 228 590 l 231 590 q 297 618 263 610 q 369 626 332 626 q 510 593 444 626 q 615 491 575 560 q 656 314 656 422 q 613 135 656 207 q 500 28 571 64 q 340 -7 429 -7 z "},"6":{"ha":731,"x_min":25,"x_max":706,"o":"m 538 969 l 344 665 q 362 667 353 667 q 381 667 371 667 q 551 627 478 667 q 665 515 624 588 q 706 339 706 442 q 663 157 706 236 q 542 33 619 78 q 360 -11 464 -11 q 187 30 263 -11 q 68 147 111 71 q 25 331 25 224 q 38 432 25 382 q 82 545 51 482 q 167 697 113 608 l 332 969 l 538 969 m 207 339 q 250 208 207 258 q 364 157 293 157 q 478 208 435 157 q 522 339 522 258 q 478 470 522 419 q 364 521 433 521 q 251 471 294 521 q 207 339 207 421 z "},"7":{"ha":557,"x_min":21,"x_max":539,"o":"m 21 800 l 21 969 l 539 969 l 539 857 l 282 0 l 90 0 l 332 800 l 21 800 z "},"8":{"ha":694,"x_min":24,"x_max":671,"o":"m 347 -11 q 110 65 197 -11 q 24 268 24 142 q 65 418 24 354 q 183 518 107 482 l 183 521 q 90 607 124 554 q 57 732 57 660 q 135 913 57 846 q 347 981 214 981 q 559 913 481 981 q 638 732 638 846 q 604 607 638 660 q 510 521 571 554 l 510 518 q 629 419 588 483 q 671 268 671 356 q 584 65 671 142 q 347 -11 497 -11 m 207 289 q 245 190 207 228 q 347 151 283 151 q 450 190 413 151 q 488 289 488 228 q 449 392 488 351 q 347 432 411 432 q 245 392 283 432 q 207 289 207 351 m 235 707 q 265 622 235 656 q 347 589 296 589 q 429 622 399 589 q 460 707 460 656 q 429 791 460 760 q 347 822 399 822 q 265 791 296 822 q 235 707 235 760 z "},"9":{"ha":731,"x_min":25,"x_max":706,"o":"m 193 0 l 386 304 q 369 303 378 303 q 350 303 360 303 q 181 342 254 303 q 66 456 107 382 q 25 631 25 529 q 68 813 25 735 q 190 936 111 892 q 371 981 268 981 q 544 940 468 981 q 663 822 619 899 q 706 639 706 746 q 692 537 706 588 q 649 424 679 486 q 564 272 618 361 l 399 0 l 193 0 m 208 631 q 253 499 208 550 q 367 449 297 449 q 480 499 436 449 q 524 631 524 550 q 481 763 524 713 q 367 813 438 813 q 252 763 296 813 q 208 631 208 713 z "}," ":{"ha":236,"x_min":0,"x_max":0,"o":""}," ":{"ha":236,"x_min":0,"x_max":0,"o":""},"A":{"ha":661,"x_min":3,"x_max":658,"o":"m 3 0 l 204 969 l 456 969 l 658 0 l 472 0 l 446 142 l 208 142 l 182 0 l 3 0 m 236 288 l 419 288 l 331 776 l 328 776 l 236 288 z "},"Á":{"ha":661,"x_min":3,"x_max":658,"o":"m 3 0 l 204 969 l 456 969 l 658 0 l 472 0 l 446 142 l 208 142 l 182 0 l 3 0 m 236 288 l 419 288 l 331 776 l 328 776 l 236 288 m 243 1032 l 353 1249 l 546 1249 l 407 1032 l 243 1032 z "},"Ă":{"ha":661,"x_min":3,"x_max":658,"o":"m 3 0 l 204 969 l 456 969 l 658 0 l 472 0 l 446 142 l 208 142 l 182 0 l 3 0 m 106 1249 l 242 1249 q 328 1153 250 1153 q 415 1249 407 1153 l 553 1249 q 488 1083 547 1142 q 328 1025 429 1025 q 169 1084 226 1025 q 106 1249 111 1143 m 236 288 l 419 288 l 331 776 l 328 776 l 236 288 z "},"Â":{"ha":661,"x_min":3,"x_max":658,"o":"m 3 0 l 204 969 l 456 969 l 658 0 l 472 0 l 446 142 l 208 142 l 182 0 l 3 0 m 88 1032 l 253 1249 l 408 1249 l 571 1032 l 410 1032 l 332 1126 l 329 1126 l 250 1032 l 88 1032 m 236 288 l 419 288 l 331 776 l 328 776 l 236 288 z "},"Ä":{"ha":661,"x_min":3,"x_max":658,"o":"m 3 0 l 204 969 l 456 969 l 658 0 l 472 0 l 446 142 l 208 142 l 182 0 l 3 0 m 107 1117 q 133 1181 107 1156 q 199 1206 160 1206 q 265 1181 240 1206 q 290 1117 290 1157 q 265 1052 290 1078 q 199 1026 239 1026 q 133 1052 160 1026 q 107 1117 107 1078 m 236 288 l 419 288 l 331 776 l 328 776 l 236 288 m 371 1117 q 397 1181 371 1156 q 463 1206 424 1206 q 529 1181 504 1206 q 554 1117 554 1157 q 528 1052 554 1078 q 463 1026 503 1026 q 397 1052 424 1026 q 371 1117 371 1078 z "},"À":{"ha":661,"x_min":3,"x_max":658,"o":"m 3 0 l 204 969 l 456 969 l 658 0 l 472 0 l 446 142 l 208 142 l 182 0 l 3 0 m 115 1249 l 311 1249 l 421 1032 l 254 1032 l 115 1249 m 236 288 l 419 288 l 331 776 l 328 776 l 236 288 z "},"Ā":{"ha":661,"x_min":3,"x_max":658,"o":"m 3 0 l 204 969 l 456 969 l 658 0 l 472 0 l 446 142 l 208 142 l 182 0 l 3 0 m 138 1046 l 138 1188 l 524 1188 l 524 1046 l 138 1046 m 236 288 l 419 288 l 331 776 l 328 776 l 236 288 z "},"Ą":{"ha":661,"x_min":3,"x_max":658,"o":"m 3 0 l 204 969 l 456 969 l 658 0 l 649 0 q 585 -22 610 0 q 560 -71 560 -44 q 601 -107 560 -107 q 649 -96 622 -107 l 649 -231 q 563 -243 603 -243 q 450 -203 485 -243 q 415 -112 415 -162 q 471 4 415 -44 l 446 142 l 208 142 l 182 0 l 3 0 m 236 288 l 419 288 l 331 776 l 328 776 l 236 288 z "},"Å":{"ha":661,"x_min":3,"x_max":658,"o":"m 3 0 l 204 969 l 456 969 l 658 0 l 472 0 l 446 142 l 208 142 l 182 0 l 3 0 m 163 1179 q 210 1296 163 1250 q 331 1342 258 1342 q 451 1296 404 1342 q 499 1179 499 1250 q 451 1064 499 1110 q 331 1018 404 1018 q 210 1064 258 1018 q 163 1179 163 1110 m 236 288 l 419 288 l 331 776 l 328 776 l 236 288 m 265 1179 q 284 1132 265 1150 q 331 1114 303 1114 q 377 1132 358 1114 q 396 1179 396 1150 q 377 1227 396 1208 q 331 1246 358 1246 q 284 1227 303 1246 q 265 1179 265 1208 z "},"Ã":{"ha":661,"x_min":3,"x_max":658,"o":"m 3 0 l 204 969 l 456 969 l 658 0 l 472 0 l 446 142 l 208 142 l 182 0 l 3 0 m 74 1035 q 120 1173 74 1124 q 235 1222 167 1222 q 310 1207 278 1222 q 367 1176 342 1192 q 417 1161 393 1161 q 465 1219 458 1161 l 588 1219 q 542 1081 588 1131 q 426 1032 496 1032 q 351 1047 383 1032 q 294 1078 319 1063 q 244 1093 268 1093 q 196 1035 203 1093 l 74 1035 m 236 288 l 419 288 l 331 776 l 328 776 l 236 288 z "},"Æ":{"ha":831,"x_min":3,"x_max":800,"o":"m 3 0 l 251 969 l 793 969 l 793 800 l 586 800 l 586 564 l 774 564 l 774 401 l 586 401 l 586 169 l 800 169 l 800 0 l 408 0 l 408 142 l 221 142 l 188 0 l 3 0 m 256 288 l 408 288 l 408 800 l 375 800 l 256 288 z "},"B":{"ha":618,"x_min":53,"x_max":603,"o":"m 53 0 l 53 969 l 317 969 q 503 906 435 969 q 572 732 572 842 q 531 595 572 646 q 432 521 490 544 l 432 518 q 554 438 506 497 q 603 276 603 379 q 532 78 603 156 q 321 0 461 0 l 53 0 m 233 150 l 292 150 q 385 187 353 150 q 418 292 418 224 q 385 396 418 360 q 292 432 353 432 l 233 432 l 233 150 m 233 582 l 279 582 q 361 613 332 582 q 390 700 390 643 q 361 788 390 757 q 279 819 332 819 l 233 819 l 233 582 z "},"C":{"ha":694,"x_min":19,"x_max":668,"o":"m 504 -11 q 251 51 361 -11 q 81 226 142 114 q 19 485 19 338 q 81 744 19 632 q 251 918 142 856 q 504 981 361 981 q 668 961 586 981 l 668 767 q 583 793 625 786 q 506 800 540 800 q 352 761 418 800 q 249 651 286 722 q 213 485 213 581 q 249 318 213 389 q 352 208 286 247 q 506 169 418 169 q 583 177 540 169 q 668 203 625 185 l 668 8 q 504 -11 586 -11 z "},"Ć":{"ha":694,"x_min":19,"x_max":696,"o":"m 504 -11 q 251 51 361 -11 q 81 226 142 114 q 19 485 19 338 q 81 744 19 632 q 251 918 142 856 q 504 981 361 981 q 668 961 586 981 l 668 767 q 583 793 625 786 q 506 800 540 800 q 352 761 418 800 q 249 651 286 722 q 213 485 213 581 q 249 318 213 389 q 352 208 286 247 q 506 169 418 169 q 583 177 540 169 q 668 203 625 185 l 668 8 q 504 -11 586 -11 m 393 1032 l 503 1249 l 696 1249 l 557 1032 l 393 1032 z "},"Č":{"ha":694,"x_min":19,"x_max":721,"o":"m 504 -11 q 251 51 361 -11 q 81 226 142 114 q 19 485 19 338 q 81 744 19 632 q 251 918 142 856 q 504 981 361 981 q 668 961 586 981 l 668 767 q 583 793 625 786 q 506 800 540 800 q 352 761 418 800 q 249 651 286 722 q 213 485 213 581 q 249 318 213 389 q 352 208 286 247 q 506 169 418 169 q 583 177 540 169 q 668 203 625 185 l 668 8 q 504 -11 586 -11 m 238 1249 l 399 1249 l 476 1154 l 479 1154 l 558 1249 l 721 1249 l 556 1032 l 400 1032 l 238 1249 z "},"Ç":{"ha":694,"x_min":19,"x_max":668,"o":"m 504 -11 l 492 -11 l 439 -215 l 272 -171 l 349 11 q 175 107 249 40 q 60 270 101 174 q 19 485 19 367 q 81 744 19 632 q 251 918 142 856 q 504 981 361 981 q 668 961 586 981 l 668 767 q 583 793 625 786 q 506 800 540 800 q 352 761 418 800 q 249 651 286 722 q 213 485 213 581 q 249 318 213 389 q 352 208 286 247 q 506 169 418 169 q 583 177 540 169 q 668 203 625 185 l 668 8 q 504 -11 586 -11 z "},"D":{"ha":842,"x_min":53,"x_max":822,"o":"m 53 0 l 53 969 l 339 969 q 596 910 488 969 q 763 741 704 850 q 822 485 822 632 q 763 230 822 339 q 596 60 704 121 q 339 0 488 0 l 53 0 m 233 167 l 335 167 q 498 208 432 167 q 598 321 564 249 q 632 485 632 393 q 598 649 632 578 q 498 762 564 721 q 335 803 432 803 l 233 803 l 233 167 z "},"Ð":{"ha":906,"x_min":28,"x_max":886,"o":"m 117 0 l 117 411 l 28 411 l 28 581 l 117 581 l 117 969 l 403 969 q 660 910 551 969 q 827 741 768 850 q 886 485 886 632 q 827 230 886 339 q 660 60 768 121 q 403 0 551 0 l 117 0 m 297 167 l 399 167 q 562 208 496 167 q 662 321 628 249 q 696 485 696 393 q 662 649 696 578 q 562 762 628 721 q 399 803 496 803 l 297 803 l 297 581 l 481 581 l 481 411 l 297 411 l 297 167 z "},"Ď":{"ha":842,"x_min":53,"x_max":822,"o":"m 53 0 l 53 969 l 339 969 q 596 910 488 969 q 763 741 704 850 q 822 485 822 632 q 763 230 822 339 q 596 60 704 121 q 339 0 488 0 l 53 0 m 78 1249 l 239 1249 l 317 1154 l 319 1154 l 399 1249 l 561 1249 l 396 1032 l 240 1032 l 78 1249 m 233 167 l 335 167 q 498 208 432 167 q 598 321 564 249 q 632 485 632 393 q 598 649 632 578 q 498 762 564 721 q 335 803 432 803 l 233 803 l 233 167 z "},"Đ":{"ha":906,"x_min":28,"x_max":886,"o":"m 117 0 l 117 411 l 28 411 l 28 581 l 117 581 l 117 969 l 403 969 q 660 910 551 969 q 827 741 768 850 q 886 485 886 632 q 827 230 886 339 q 660 60 768 121 q 403 0 551 0 l 117 0 m 297 167 l 399 167 q 562 208 496 167 q 662 321 628 249 q 696 485 696 393 q 662 649 696 578 q 562 762 628 721 q 399 803 496 803 l 297 803 l 297 581 l 481 581 l 481 411 l 297 411 l 297 167 z "},"E":{"ha":478,"x_min":53,"x_max":447,"o":"m 53 0 l 53 969 l 440 969 l 440 800 l 233 800 l 233 564 l 421 564 l 421 401 l 233 401 l 233 169 l 447 169 l 447 0 l 53 0 z "},"É":{"ha":478,"x_min":53,"x_max":467,"o":"m 53 0 l 53 969 l 440 969 l 440 800 l 233 800 l 233 564 l 421 564 l 421 401 l 233 401 l 233 169 l 447 169 l 447 0 l 53 0 m 164 1032 l 274 1249 l 467 1249 l 328 1032 l 164 1032 z "},"Ě":{"ha":478,"x_min":8,"x_max":492,"o":"m 53 0 l 53 969 l 440 969 l 440 800 l 233 800 l 233 564 l 421 564 l 421 401 l 233 401 l 233 169 l 447 169 l 447 0 l 53 0 m 8 1249 l 169 1249 l 247 1154 l 250 1154 l 329 1249 l 492 1249 l 326 1032 l 171 1032 l 8 1249 z "},"Ê":{"ha":478,"x_min":8,"x_max":492,"o":"m 53 0 l 53 969 l 440 969 l 440 800 l 233 800 l 233 564 l 421 564 l 421 401 l 233 401 l 233 169 l 447 169 l 447 0 l 53 0 m 8 1032 l 174 1249 l 329 1249 l 492 1032 l 331 1032 l 253 1126 l 250 1126 l 171 1032 l 8 1032 z "},"Ë":{"ha":478,"x_min":28,"x_max":475,"o":"m 53 0 l 53 969 l 440 969 l 440 800 l 233 800 l 233 564 l 421 564 l 421 401 l 233 401 l 233 169 l 447 169 l 447 0 l 53 0 m 28 1117 q 54 1181 28 1156 q 119 1206 81 1206 q 186 1181 161 1206 q 211 1117 211 1157 q 185 1052 211 1078 q 119 1026 160 1026 q 54 1052 81 1026 q 28 1117 28 1078 m 292 1117 q 318 1181 292 1156 q 383 1206 344 1206 q 450 1181 425 1206 q 475 1117 475 1157 q 449 1052 475 1078 q 383 1026 424 1026 q 318 1052 344 1026 q 292 1117 292 1078 z "},"Ė":{"ha":478,"x_min":53,"x_max":447,"o":"m 53 0 l 53 969 l 440 969 l 440 800 l 233 800 l 233 564 l 421 564 l 421 401 l 233 401 l 233 169 l 447 169 l 447 0 l 53 0 m 147 1131 q 176 1202 147 1176 q 251 1228 206 1228 q 327 1202 299 1228 q 356 1131 356 1176 q 326 1058 356 1085 q 251 1032 297 1032 q 177 1058 207 1032 q 147 1131 147 1085 z "},"È":{"ha":478,"x_min":36,"x_max":447,"o":"m 53 0 l 53 969 l 440 969 l 440 800 l 233 800 l 233 564 l 421 564 l 421 401 l 233 401 l 233 169 l 447 169 l 447 0 l 53 0 m 36 1249 l 232 1249 l 342 1032 l 175 1032 l 36 1249 z "},"Ē":{"ha":478,"x_min":53,"x_max":447,"o":"m 53 0 l 53 969 l 440 969 l 440 800 l 233 800 l 233 564 l 421 564 l 421 401 l 233 401 l 233 169 l 447 169 l 447 0 l 53 0 m 58 1046 l 58 1188 l 444 1188 l 444 1046 l 58 1046 z "},"Ę":{"ha":478,"x_min":53,"x_max":447,"o":"m 53 0 l 53 969 l 440 969 l 440 800 l 233 800 l 233 564 l 421 564 l 421 401 l 233 401 l 233 169 l 447 169 l 447 0 q 383 -22 408 0 q 358 -71 358 -44 q 400 -107 358 -107 q 447 -96 421 -107 l 447 -231 q 361 -243 401 -243 q 249 -203 283 -243 q 214 -112 214 -162 q 265 0 214 -49 l 53 0 z "},"F":{"ha":432,"x_min":53,"x_max":413,"o":"m 53 0 l 53 969 l 413 969 l 413 800 l 233 800 l 233 553 l 393 553 l 393 383 l 233 383 l 233 0 l 53 0 z "},"G":{"ha":871,"x_min":19,"x_max":832,"o":"m 508 -11 q 250 51 360 -11 q 80 226 140 114 q 19 485 19 338 q 81 744 19 632 q 253 918 143 856 q 510 981 364 981 q 647 967 582 981 q 768 933 711 954 l 768 731 q 650 783 715 764 q 517 803 585 803 q 351 762 419 803 q 246 649 282 721 q 210 485 210 578 q 245 321 210 393 q 349 208 281 249 q 513 167 417 167 q 580 172 544 167 q 651 188 615 176 l 651 394 l 435 394 l 435 563 l 832 563 l 832 68 q 667 7 751 25 q 508 -11 583 -11 z "},"Ģ":{"ha":871,"x_min":19,"x_max":832,"o":"m 508 -11 q 250 51 360 -11 q 80 226 140 114 q 19 485 19 338 q 81 744 19 632 q 253 918 143 856 q 510 981 364 981 q 647 967 582 981 q 768 933 711 954 l 768 731 q 650 783 715 764 q 517 803 585 803 q 351 762 419 803 q 246 649 282 721 q 210 485 210 578 q 245 321 210 393 q 349 208 281 249 q 513 167 417 167 q 580 172 544 167 q 651 188 615 176 l 651 394 l 435 394 l 435 563 l 832 563 l 832 68 q 667 7 751 25 q 508 -11 583 -11 m 392 -243 l 419 -56 l 586 -56 l 533 -243 l 392 -243 z "},"H":{"ha":661,"x_min":53,"x_max":608,"o":"m 428 0 l 428 411 l 233 411 l 233 0 l 53 0 l 53 969 l 233 969 l 233 581 l 428 581 l 428 969 l 608 969 l 608 0 l 428 0 z "},"I":{"ha":286,"x_min":53,"x_max":233,"o":"m 53 0 l 53 969 l 233 969 l 233 0 l 53 0 z "},"Ĳ":{"ha":710,"x_min":53,"x_max":663,"o":"m 53 0 l 53 969 l 233 969 l 233 0 l 53 0 m 297 13 l 297 204 q 411 158 363 158 q 482 238 482 158 l 482 969 l 663 969 l 663 219 q 601 49 663 108 q 428 -11 540 -11 q 297 13 357 -11 z "},"Í":{"ha":286,"x_min":53,"x_max":358,"o":"m 53 0 l 53 969 l 233 969 l 233 0 l 53 0 m 56 1032 l 165 1249 l 358 1249 l 219 1032 l 56 1032 z "},"Î":{"ha":286,"x_min":-100,"x_max":383,"o":"m 53 0 l 53 969 l 233 969 l 233 0 l 53 0 m -100 1032 l 65 1249 l 221 1249 l 383 1032 l 222 1032 l 144 1126 l 142 1126 l 63 1032 l -100 1032 z "},"Ï":{"ha":286,"x_min":-81,"x_max":367,"o":"m 53 0 l 53 969 l 233 969 l 233 0 l 53 0 m -81 1117 q -54 1181 -81 1156 q 11 1206 -28 1206 q 78 1181 53 1206 q 103 1117 103 1157 q 77 1052 103 1078 q 11 1026 51 1026 q -54 1052 -28 1026 q -81 1117 -81 1078 m 183 1117 q 210 1181 183 1156 q 275 1206 236 1206 q 342 1181 317 1206 q 367 1117 367 1157 q 341 1052 367 1078 q 275 1026 315 1026 q 210 1052 236 1026 q 183 1117 183 1078 z "},"Ì":{"ha":286,"x_min":-72,"x_max":233,"o":"m 53 0 l 53 969 l 233 969 l 233 0 l 53 0 m -72 1249 l 124 1249 l 233 1032 l 67 1032 l -72 1249 z "},"Ī":{"ha":286,"x_min":-50,"x_max":336,"o":"m 53 0 l 53 969 l 233 969 l 233 0 l 53 0 m -50 1046 l -50 1188 l 336 1188 l 336 1046 l -50 1046 z "},"Į":{"ha":286,"x_min":0,"x_max":233,"o":"m 147 -243 q 35 -203 69 -243 q 0 -112 0 -162 q 53 1 0 -47 l 53 969 l 233 969 l 233 0 q 169 -22 194 0 q 144 -71 144 -44 q 186 -107 144 -107 q 233 -96 207 -107 l 233 -231 q 147 -243 188 -243 z "},"J":{"ha":424,"x_min":11,"x_max":376,"o":"m 142 -11 q 11 13 71 -11 l 11 204 q 125 158 76 158 q 196 238 196 158 l 196 969 l 376 969 l 376 219 q 315 49 376 108 q 142 -11 254 -11 z "},"K":{"ha":628,"x_min":53,"x_max":633,"o":"m 53 0 l 53 969 l 233 969 l 233 536 l 236 536 l 440 969 l 633 969 l 407 531 q 541 444 497 513 q 585 268 585 376 l 585 0 l 404 0 l 404 240 q 375 368 404 331 q 271 406 346 406 l 233 406 l 233 0 l 53 0 z "},"Ķ":{"ha":628,"x_min":53,"x_max":633,"o":"m 53 0 l 53 969 l 233 969 l 233 536 l 236 536 l 440 969 l 633 969 l 407 531 q 541 444 497 513 q 585 268 585 376 l 585 0 l 404 0 l 404 240 q 375 368 404 331 q 271 406 346 406 l 233 406 l 233 0 l 53 0 m 208 -243 l 236 -56 l 403 -56 l 350 -243 l 208 -243 z "},"L":{"ha":421,"x_min":53,"x_max":413,"o":"m 53 0 l 53 969 l 233 969 l 233 169 l 413 169 l 413 0 l 53 0 z "},"Ĺ":{"ha":421,"x_min":53,"x_max":413,"o":"m 53 0 l 53 969 l 233 969 l 233 169 l 413 169 l 413 0 l 53 0 m 56 1032 l 165 1249 l 358 1249 l 219 1032 l 56 1032 z "},"Ľ":{"ha":421,"x_min":53,"x_max":454,"o":"m 53 0 l 53 969 l 233 969 l 233 169 l 413 169 l 413 0 l 53 0 m 294 804 l 294 1076 l 454 1076 l 415 804 l 294 804 z "},"Ļ":{"ha":421,"x_min":53,"x_max":413,"o":"m 53 0 l 53 969 l 233 969 l 233 169 l 413 169 l 413 0 l 53 0 m 117 -243 l 144 -56 l 311 -56 l 258 -243 l 117 -243 z "},"Ł":{"ha":454,"x_min":14,"x_max":446,"o":"m 14 401 l 14 572 l 86 606 l 86 969 l 267 969 l 267 690 l 403 753 l 403 582 l 267 519 l 267 169 l 446 169 l 446 0 l 86 0 l 86 435 l 14 401 z "},"M":{"ha":996,"x_min":31,"x_max":965,"o":"m 31 0 l 94 969 l 354 969 l 499 333 l 501 333 l 642 969 l 901 969 l 965 0 l 785 0 l 746 739 l 743 739 l 567 0 l 424 0 l 246 739 l 243 739 l 204 0 l 31 0 z "},"N":{"ha":739,"x_min":53,"x_max":686,"o":"m 53 0 l 53 969 l 279 969 l 522 279 l 525 279 l 522 969 l 686 969 l 686 0 l 461 0 l 218 683 l 215 683 l 217 0 l 53 0 z "},"Ń":{"ha":739,"x_min":53,"x_max":686,"o":"m 53 0 l 53 969 l 279 969 l 522 279 l 525 279 l 522 969 l 686 969 l 686 0 l 461 0 l 218 683 l 215 683 l 217 0 l 53 0 m 279 1032 l 389 1249 l 582 1249 l 443 1032 l 279 1032 z "},"Ň":{"ha":739,"x_min":53,"x_max":686,"o":"m 53 0 l 53 969 l 279 969 l 522 279 l 525 279 l 522 969 l 686 969 l 686 0 l 461 0 l 218 683 l 215 683 l 217 0 l 53 0 m 124 1249 l 285 1249 l 363 1154 l 365 1154 l 444 1249 l 607 1249 l 442 1032 l 286 1032 l 124 1249 z "},"Ņ":{"ha":739,"x_min":53,"x_max":686,"o":"m 53 0 l 53 969 l 279 969 l 522 279 l 525 279 l 522 969 l 686 969 l 686 0 l 461 0 l 218 683 l 215 683 l 217 0 l 53 0 m 240 -243 l 268 -56 l 435 -56 l 382 -243 l 240 -243 z "},"Ñ":{"ha":739,"x_min":53,"x_max":686,"o":"m 53 0 l 53 969 l 279 969 l 522 279 l 525 279 l 522 969 l 686 969 l 686 0 l 461 0 l 218 683 l 215 683 l 217 0 l 53 0 m 110 1035 q 156 1173 110 1124 q 271 1222 203 1222 q 346 1207 314 1222 q 403 1176 378 1192 q 453 1161 429 1161 q 501 1219 494 1161 l 624 1219 q 578 1081 624 1131 q 463 1032 532 1032 q 388 1047 419 1032 q 330 1078 356 1063 q 281 1093 304 1093 q 232 1035 239 1093 l 110 1035 z "},"Ŋ":{"ha":719,"x_min":53,"x_max":667,"o":"m 432 -194 q 301 -171 361 -194 l 301 7 q 362 -27 333 -15 q 421 -39 390 -39 q 461 -31 443 -39 q 479 4 479 -22 q 469 44 479 21 l 219 665 l 217 665 l 217 0 l 53 0 l 53 969 l 263 969 l 500 360 l 503 360 l 503 969 l 667 969 l 667 64 q 606 -131 667 -68 q 432 -194 544 -194 z "},"O":{"ha":1001,"x_min":19,"x_max":982,"o":"m 500 -11 q 250 51 358 -11 q 81 226 142 114 q 19 485 19 338 q 81 744 19 632 q 250 918 142 856 q 500 981 358 981 q 751 917 643 981 q 921 743 860 854 q 982 485 982 632 q 921 227 982 339 q 751 52 860 115 q 500 -11 643 -11 m 211 485 q 248 319 211 392 q 350 205 285 246 q 500 164 415 164 q 651 205 586 164 q 753 318 717 246 q 790 485 790 390 q 753 651 790 579 q 651 763 717 722 q 500 804 586 804 q 350 763 415 804 q 248 651 285 722 q 211 485 211 579 z "},"Ó":{"ha":1001,"x_min":19,"x_max":982,"o":"m 500 -11 q 250 51 358 -11 q 81 226 142 114 q 19 485 19 338 q 81 744 19 632 q 250 918 142 856 q 500 981 358 981 q 751 917 643 981 q 921 743 860 854 q 982 485 982 632 q 921 227 982 339 q 751 52 860 115 q 500 -11 643 -11 m 211 485 q 248 319 211 392 q 350 205 285 246 q 500 164 415 164 q 651 205 586 164 q 753 318 717 246 q 790 485 790 390 q 753 651 790 579 q 651 763 717 722 q 500 804 586 804 q 350 763 415 804 q 248 651 285 722 q 211 485 211 579 m 413 1032 l 522 1249 l 715 1249 l 576 1032 l 413 1032 z "},"Ô":{"ha":1001,"x_min":19,"x_max":982,"o":"m 500 -11 q 250 51 358 -11 q 81 226 142 114 q 19 485 19 338 q 81 744 19 632 q 250 918 142 856 q 500 981 358 981 q 751 917 643 981 q 921 743 860 854 q 982 485 982 632 q 921 227 982 339 q 751 52 860 115 q 500 -11 643 -11 m 211 485 q 248 319 211 392 q 350 205 285 246 q 500 164 415 164 q 651 205 586 164 q 753 318 717 246 q 790 485 790 390 q 753 651 790 579 q 651 763 717 722 q 500 804 586 804 q 350 763 415 804 q 248 651 285 722 q 211 485 211 579 m 257 1032 l 422 1249 l 578 1249 l 740 1032 l 579 1032 l 501 1126 l 499 1126 l 419 1032 l 257 1032 z "},"Ö":{"ha":1001,"x_min":19,"x_max":982,"o":"m 500 -11 q 250 51 358 -11 q 81 226 142 114 q 19 485 19 338 q 81 744 19 632 q 250 918 142 856 q 500 981 358 981 q 751 917 643 981 q 921 743 860 854 q 982 485 982 632 q 921 227 982 339 q 751 52 860 115 q 500 -11 643 -11 m 211 485 q 248 319 211 392 q 350 205 285 246 q 500 164 415 164 q 651 205 586 164 q 753 318 717 246 q 790 485 790 390 q 753 651 790 579 q 651 763 717 722 q 500 804 586 804 q 350 763 415 804 q 248 651 285 722 q 211 485 211 579 m 276 1117 q 303 1181 276 1156 q 368 1206 329 1206 q 435 1181 410 1206 q 460 1117 460 1157 q 434 1052 460 1078 q 368 1026 408 1026 q 303 1052 329 1026 q 276 1117 276 1078 m 540 1117 q 567 1181 540 1156 q 632 1206 593 1206 q 699 1181 674 1206 q 724 1117 724 1157 q 698 1052 724 1078 q 632 1026 672 1026 q 567 1052 593 1026 q 540 1117 540 1078 z "},"Ò":{"ha":1001,"x_min":19,"x_max":982,"o":"m 500 -11 q 250 51 358 -11 q 81 226 142 114 q 19 485 19 338 q 81 744 19 632 q 250 918 142 856 q 500 981 358 981 q 751 917 643 981 q 921 743 860 854 q 982 485 982 632 q 921 227 982 339 q 751 52 860 115 q 500 -11 643 -11 m 211 485 q 248 319 211 392 q 350 205 285 246 q 500 164 415 164 q 651 205 586 164 q 753 318 717 246 q 790 485 790 390 q 753 651 790 579 q 651 763 717 722 q 500 804 586 804 q 350 763 415 804 q 248 651 285 722 q 211 485 211 579 m 285 1249 l 481 1249 l 590 1032 l 424 1032 l 285 1249 z "},"Ő":{"ha":1001,"x_min":19,"x_max":982,"o":"m 500 -11 q 250 51 358 -11 q 81 226 142 114 q 19 485 19 338 q 81 744 19 632 q 250 918 142 856 q 500 981 358 981 q 751 917 643 981 q 921 743 860 854 q 982 485 982 632 q 921 227 982 339 q 751 52 860 115 q 500 -11 643 -11 m 211 485 q 248 319 211 392 q 350 205 285 246 q 500 164 415 164 q 651 205 586 164 q 753 318 717 246 q 790 485 790 390 q 753 651 790 579 q 651 763 717 722 q 500 804 586 804 q 350 763 415 804 q 248 651 285 722 q 211 485 211 579 m 315 1032 l 383 1249 l 547 1249 l 451 1032 l 315 1032 m 538 1032 l 633 1249 l 804 1249 l 679 1032 l 538 1032 z "},"Ō":{"ha":1001,"x_min":19,"x_max":982,"o":"m 500 -11 q 250 51 358 -11 q 81 226 142 114 q 19 485 19 338 q 81 744 19 632 q 250 918 142 856 q 500 981 358 981 q 751 917 643 981 q 921 743 860 854 q 982 485 982 632 q 921 227 982 339 q 751 52 860 115 q 500 -11 643 -11 m 211 485 q 248 319 211 392 q 350 205 285 246 q 500 164 415 164 q 651 205 586 164 q 753 318 717 246 q 790 485 790 390 q 753 651 790 579 q 651 763 717 722 q 500 804 586 804 q 350 763 415 804 q 248 651 285 722 q 211 485 211 579 m 307 1046 l 307 1188 l 693 1188 l 693 1046 l 307 1046 z "},"Ø":{"ha":1001,"x_min":19,"x_max":982,"o":"m 136 -65 l 24 28 l 129 153 q 49 302 78 218 q 19 485 19 386 q 81 744 19 632 q 250 918 142 856 q 500 981 358 981 q 641 963 575 981 q 763 911 707 944 l 867 1035 l 978 942 l 872 815 q 953 667 925 751 q 982 485 982 583 q 921 227 982 339 q 751 52 860 115 q 500 -11 643 -11 q 360 7 425 -11 q 239 58 294 25 l 136 -65 m 206 485 q 217 385 206 432 q 251 300 229 339 l 647 772 q 578 800 615 790 q 500 810 542 810 q 347 769 414 810 q 243 654 281 728 q 206 485 206 581 m 354 196 q 423 168 386 178 q 500 158 460 158 q 654 200 588 158 q 758 315 721 242 q 796 485 796 389 q 784 584 796 538 q 750 669 772 631 l 354 196 z "},"Õ":{"ha":1001,"x_min":19,"x_max":982,"o":"m 500 -11 q 250 51 358 -11 q 81 226 142 114 q 19 485 19 338 q 81 744 19 632 q 250 918 142 856 q 500 981 358 981 q 751 917 643 981 q 921 743 860 854 q 982 485 982 632 q 921 227 982 339 q 751 52 860 115 q 500 -11 643 -11 m 211 485 q 248 319 211 392 q 350 205 285 246 q 500 164 415 164 q 651 205 586 164 q 753 318 717 246 q 790 485 790 390 q 753 651 790 579 q 651 763 717 722 q 500 804 586 804 q 350 763 415 804 q 248 651 285 722 q 211 485 211 579 m 243 1035 q 290 1173 243 1124 q 404 1222 336 1222 q 479 1207 447 1222 q 537 1176 511 1192 q 586 1161 563 1161 q 635 1219 628 1161 l 757 1219 q 711 1081 757 1131 q 596 1032 665 1032 q 521 1047 553 1032 q 463 1078 489 1063 q 414 1093 438 1093 q 365 1035 372 1093 l 243 1035 z "},"Œ":{"ha":1215,"x_min":19,"x_max":1185,"o":"m 494 -11 q 247 51 354 -11 q 80 226 140 114 q 19 485 19 338 q 80 744 19 632 q 247 918 140 856 q 494 981 354 981 q 669 950 593 981 q 801 864 746 919 l 804 864 l 804 969 l 1178 969 l 1178 800 l 971 800 l 971 564 l 1158 564 l 1158 401 l 971 401 l 971 169 l 1185 169 l 1185 0 l 804 0 l 804 106 l 801 106 q 669 19 746 50 q 494 -11 593 -11 m 211 485 q 248 319 211 392 q 350 205 285 246 q 500 164 415 164 q 651 205 586 164 q 753 318 717 246 q 790 485 790 390 q 753 651 790 579 q 651 763 717 722 q 500 804 586 804 q 350 763 415 804 q 248 651 285 722 q 211 485 211 579 z "},"P":{"ha":604,"x_min":53,"x_max":592,"o":"m 53 0 l 53 969 l 283 969 q 510 888 428 969 q 592 657 592 806 q 510 422 592 507 q 283 338 428 338 l 233 338 l 233 0 l 53 0 m 233 494 l 269 494 q 411 653 411 494 q 376 772 411 731 q 269 814 342 814 l 233 814 l 233 494 z "},"Þ":{"ha":604,"x_min":53,"x_max":592,"o":"m 53 0 l 53 969 l 233 969 l 233 810 l 283 810 q 510 728 428 810 q 592 497 592 646 q 510 263 592 347 q 283 178 428 178 l 233 178 l 233 0 l 53 0 m 233 335 l 269 335 q 411 493 411 335 q 376 613 411 571 q 269 654 342 654 l 233 654 l 233 335 z "},"Q":{"ha":1001,"x_min":19,"x_max":982,"o":"m 692 -100 l 638 6 q 500 -11 574 -11 q 250 51 358 -11 q 81 226 142 114 q 19 485 19 338 q 81 744 19 632 q 250 918 142 856 q 500 981 358 981 q 751 917 643 981 q 921 743 860 854 q 982 485 982 632 q 934 253 982 356 q 801 85 886 150 l 903 -100 l 692 -100 m 210 479 q 247 309 210 382 q 350 196 285 236 q 500 156 415 156 q 529 157 515 156 q 557 161 543 158 l 386 492 l 576 492 l 711 246 q 771 348 750 289 q 792 479 792 407 q 754 648 792 576 q 651 760 717 719 q 500 800 586 800 q 350 760 415 800 q 247 648 285 719 q 210 479 210 576 z "},"R":{"ha":624,"x_min":53,"x_max":585,"o":"m 53 0 l 53 969 l 329 969 q 516 904 447 969 q 585 719 585 839 q 543 572 585 631 q 438 494 501 514 l 438 492 q 548 417 511 474 q 585 258 585 361 l 585 0 l 404 0 l 404 242 q 378 368 404 331 q 294 406 353 406 l 233 406 l 233 0 l 53 0 m 233 572 l 292 572 q 373 605 343 572 q 403 700 403 638 q 374 791 403 761 q 292 821 344 821 l 233 821 l 233 572 z "},"Ŕ":{"ha":624,"x_min":53,"x_max":585,"o":"m 53 0 l 53 969 l 329 969 q 516 904 447 969 q 585 719 585 839 q 543 572 585 631 q 438 494 501 514 l 438 492 q 548 417 511 474 q 585 258 585 361 l 585 0 l 404 0 l 404 242 q 378 368 404 331 q 294 406 353 406 l 233 406 l 233 0 l 53 0 m 197 1032 l 307 1249 l 500 1249 l 361 1032 l 197 1032 m 233 572 l 292 572 q 373 605 343 572 q 403 700 403 638 q 374 791 403 761 q 292 821 344 821 l 233 821 l 233 572 z "},"Ř":{"ha":624,"x_min":42,"x_max":585,"o":"m 53 0 l 53 969 l 329 969 q 516 904 447 969 q 585 719 585 839 q 543 572 585 631 q 438 494 501 514 l 438 492 q 548 417 511 474 q 585 258 585 361 l 585 0 l 404 0 l 404 242 q 378 368 404 331 q 294 406 353 406 l 233 406 l 233 0 l 53 0 m 42 1249 l 203 1249 l 281 1154 l 283 1154 l 363 1249 l 525 1249 l 360 1032 l 204 1032 l 42 1249 m 233 572 l 292 572 q 373 605 343 572 q 403 700 403 638 q 374 791 403 761 q 292 821 344 821 l 233 821 l 233 572 z "},"Ŗ":{"ha":624,"x_min":53,"x_max":585,"o":"m 53 0 l 53 969 l 329 969 q 516 904 447 969 q 585 719 585 839 q 543 572 585 631 q 438 494 501 514 l 438 492 q 548 417 511 474 q 585 258 585 361 l 585 0 l 404 0 l 404 242 q 378 368 404 331 q 294 406 353 406 l 233 406 l 233 0 l 53 0 m 208 -243 l 236 -56 l 403 -56 l 350 -243 l 208 -243 m 233 572 l 292 572 q 373 605 343 572 q 403 700 403 638 q 374 791 403 761 q 292 821 344 821 l 233 821 l 233 572 z "},"S":{"ha":471,"x_min":22,"x_max":460,"o":"m 199 -11 q 26 25 110 -11 l 26 224 q 114 169 75 186 q 186 153 153 153 q 251 175 224 153 q 278 244 278 197 q 264 306 278 276 q 226 367 250 336 l 103 532 q 45 631 68 579 q 22 747 22 683 q 91 922 22 863 q 268 981 160 981 q 400 961 331 981 l 400 792 q 338 817 369 807 q 278 826 306 826 q 218 807 240 826 q 196 751 196 788 q 232 661 196 710 l 350 504 q 429 381 399 439 q 460 242 460 324 q 387 54 460 119 q 199 -11 314 -11 z "},"Ś":{"ha":471,"x_min":22,"x_max":460,"o":"m 199 -11 q 26 25 110 -11 l 26 224 q 114 169 75 186 q 186 153 153 153 q 251 175 224 153 q 278 244 278 197 q 264 306 278 276 q 226 367 250 336 l 103 532 q 45 631 68 579 q 22 747 22 683 q 91 922 22 863 q 268 981 160 981 q 400 961 331 981 l 400 792 q 338 817 369 807 q 278 826 306 826 q 218 807 240 826 q 196 751 196 788 q 232 661 196 710 l 350 504 q 429 381 399 439 q 460 242 460 324 q 387 54 460 119 q 199 -11 314 -11 m 139 1032 l 249 1249 l 442 1249 l 303 1032 l 139 1032 z "},"Š":{"ha":471,"x_min":-17,"x_max":467,"o":"m 199 -11 q 26 25 110 -11 l 26 224 q 114 169 75 186 q 186 153 153 153 q 251 175 224 153 q 278 244 278 197 q 264 306 278 276 q 226 367 250 336 l 103 532 q 45 631 68 579 q 22 747 22 683 q 91 922 22 863 q 268 981 160 981 q 400 961 331 981 l 400 792 q 338 817 369 807 q 278 826 306 826 q 218 807 240 826 q 196 751 196 788 q 232 661 196 710 l 350 504 q 429 381 399 439 q 460 242 460 324 q 387 54 460 119 q 199 -11 314 -11 m -17 1249 l 144 1249 l 222 1154 l 225 1154 l 304 1249 l 467 1249 l 301 1032 l 146 1032 l -17 1249 z "},"Ş":{"ha":471,"x_min":22,"x_max":460,"o":"m 244 -215 l 78 -171 l 147 -8 q 26 25 82 0 l 26 224 q 114 169 75 186 q 186 153 153 153 q 251 175 224 153 q 278 244 278 197 q 264 306 278 276 q 226 367 250 336 l 103 532 q 45 631 68 579 q 22 747 22 683 q 91 922 22 863 q 268 981 160 981 q 400 961 331 981 l 400 792 q 338 817 369 807 q 278 826 306 826 q 218 807 240 826 q 196 751 196 788 q 232 661 196 710 l 350 504 q 429 381 399 439 q 460 242 460 324 q 417 88 460 149 q 301 4 375 28 l 244 -215 z "},"ẞ":{"ha":708,"x_min":53,"x_max":689,"o":"m 394 -6 q 337 -1 363 -6 q 289 10 311 4 l 289 179 q 331 165 310 169 q 374 160 351 160 q 469 195 432 160 q 506 301 506 231 q 470 406 506 365 q 354 446 435 446 l 300 446 l 300 565 l 428 803 l 233 803 l 233 0 l 53 0 l 53 969 l 640 969 l 640 857 l 482 568 q 634 481 579 550 q 689 297 689 413 q 651 135 689 203 q 547 31 614 67 q 394 -6 481 -6 z "},"T":{"ha":479,"x_min":8,"x_max":471,"o":"m 150 0 l 150 800 l 8 800 l 8 969 l 471 969 l 471 800 l 331 800 l 331 0 l 150 0 z "},"Ŧ":{"ha":479,"x_min":8,"x_max":471,"o":"m 150 0 l 150 401 l 58 401 l 58 564 l 150 564 l 150 800 l 8 800 l 8 969 l 471 969 l 471 800 l 331 800 l 331 564 l 421 564 l 421 401 l 331 401 l 331 0 l 150 0 z "},"Ť":{"ha":479,"x_min":-3,"x_max":481,"o":"m 150 0 l 150 800 l 8 800 l 8 969 l 471 969 l 471 800 l 331 800 l 331 0 l 150 0 m -3 1249 l 158 1249 l 236 1154 l 239 1154 l 318 1249 l 481 1249 l 315 1032 l 160 1032 l -3 1249 z "},"Ţ":{"ha":479,"x_min":8,"x_max":471,"o":"m 8 800 l 8 969 l 471 969 l 471 800 l 331 800 l 331 0 l 269 0 l 214 -215 l 47 -171 l 150 72 l 150 800 l 8 800 z "},"U":{"ha":649,"x_min":47,"x_max":601,"o":"m 324 -11 q 120 66 193 -11 q 47 278 47 143 l 47 969 l 226 969 l 226 275 q 251 192 226 224 q 324 161 276 161 q 397 192 371 161 q 422 275 422 224 l 422 969 l 601 969 l 601 278 q 528 66 601 143 q 324 -11 456 -11 z "},"Ú":{"ha":649,"x_min":47,"x_max":601,"o":"m 324 -11 q 120 66 193 -11 q 47 278 47 143 l 47 969 l 226 969 l 226 275 q 251 192 226 224 q 324 161 276 161 q 397 192 371 161 q 422 275 422 224 l 422 969 l 601 969 l 601 278 q 528 66 601 143 q 324 -11 456 -11 m 238 1032 l 347 1249 l 540 1249 l 401 1032 l 238 1032 z "},"Û":{"ha":649,"x_min":47,"x_max":601,"o":"m 324 -11 q 120 66 193 -11 q 47 278 47 143 l 47 969 l 226 969 l 226 275 q 251 192 226 224 q 324 161 276 161 q 397 192 371 161 q 422 275 422 224 l 422 969 l 601 969 l 601 278 q 528 66 601 143 q 324 -11 456 -11 m 82 1032 l 247 1249 l 403 1249 l 565 1032 l 404 1032 l 326 1126 l 324 1126 l 244 1032 l 82 1032 z "},"Ü":{"ha":649,"x_min":47,"x_max":601,"o":"m 324 -11 q 120 66 193 -11 q 47 278 47 143 l 47 969 l 226 969 l 226 275 q 251 192 226 224 q 324 161 276 161 q 397 192 371 161 q 422 275 422 224 l 422 969 l 601 969 l 601 278 q 528 66 601 143 q 324 -11 456 -11 m 101 1117 q 128 1181 101 1156 q 193 1206 154 1206 q 260 1181 235 1206 q 285 1117 285 1157 q 259 1052 285 1078 q 193 1026 233 1026 q 128 1052 154 1026 q 101 1117 101 1078 m 365 1117 q 392 1181 365 1156 q 457 1206 418 1206 q 524 1181 499 1206 q 549 1117 549 1157 q 523 1052 549 1078 q 457 1026 497 1026 q 392 1052 418 1026 q 365 1117 365 1078 z "},"Ù":{"ha":649,"x_min":47,"x_max":601,"o":"m 324 -11 q 120 66 193 -11 q 47 278 47 143 l 47 969 l 226 969 l 226 275 q 251 192 226 224 q 324 161 276 161 q 397 192 371 161 q 422 275 422 224 l 422 969 l 601 969 l 601 278 q 528 66 601 143 q 324 -11 456 -11 m 110 1249 l 306 1249 l 415 1032 l 249 1032 l 110 1249 z "},"Ű":{"ha":649,"x_min":47,"x_max":629,"o":"m 324 -11 q 120 66 193 -11 q 47 278 47 143 l 47 969 l 226 969 l 226 275 q 251 192 226 224 q 324 161 276 161 q 397 192 371 161 q 422 275 422 224 l 422 969 l 601 969 l 601 278 q 528 66 601 143 q 324 -11 456 -11 m 140 1032 l 208 1249 l 372 1249 l 276 1032 l 140 1032 m 363 1032 l 458 1249 l 629 1249 l 504 1032 l 363 1032 z "},"Ū":{"ha":649,"x_min":47,"x_max":601,"o":"m 324 -11 q 120 66 193 -11 q 47 278 47 143 l 47 969 l 226 969 l 226 275 q 251 192 226 224 q 324 161 276 161 q 397 192 371 161 q 422 275 422 224 l 422 969 l 601 969 l 601 278 q 528 66 601 143 q 324 -11 456 -11 m 132 1046 l 132 1188 l 518 1188 l 518 1046 l 132 1046 z "},"Ų":{"ha":649,"x_min":47,"x_max":601,"o":"m 326 -243 q 214 -203 249 -243 q 179 -112 179 -162 q 232 0 179 -46 q 95 97 143 25 q 47 278 47 169 l 47 969 l 226 969 l 226 275 q 251 192 226 224 q 324 161 276 161 q 397 192 371 161 q 422 275 422 224 l 422 969 l 601 969 l 601 278 q 542 81 601 156 q 372 -8 482 7 q 337 -35 350 -18 q 324 -71 324 -51 q 365 -107 324 -107 q 413 -96 386 -107 l 413 -231 q 326 -243 367 -243 z "},"Ů":{"ha":649,"x_min":47,"x_max":601,"o":"m 324 -11 q 120 66 193 -11 q 47 278 47 143 l 47 969 l 226 969 l 226 275 q 251 192 226 224 q 324 161 276 161 q 397 192 371 161 q 422 275 422 224 l 422 969 l 601 969 l 601 278 q 528 66 601 143 q 324 -11 456 -11 m 157 1179 q 205 1296 157 1250 q 325 1342 253 1342 q 446 1296 399 1342 q 493 1179 493 1250 q 446 1064 493 1110 q 325 1018 399 1018 q 205 1064 253 1018 q 157 1179 157 1110 m 260 1179 q 278 1132 260 1150 q 325 1114 297 1114 q 372 1132 353 1114 q 390 1179 390 1150 q 372 1227 390 1208 q 325 1246 353 1246 q 278 1227 297 1246 q 260 1179 260 1208 z "},"V":{"ha":568,"x_min":3,"x_max":565,"o":"m 161 0 l 3 969 l 188 969 l 282 226 l 285 226 l 388 969 l 565 969 l 407 0 l 161 0 z "},"W":{"ha":1036,"x_min":6,"x_max":1031,"o":"m 161 0 l 6 969 l 188 969 l 281 247 l 283 247 l 435 969 l 603 969 l 754 247 l 757 247 l 850 969 l 1031 969 l 869 0 l 650 0 l 518 638 l 515 638 l 379 0 l 161 0 z "},"Ẃ":{"ha":1036,"x_min":6,"x_max":1031,"o":"m 161 0 l 6 969 l 188 969 l 281 247 l 283 247 l 435 969 l 603 969 l 754 247 l 757 247 l 850 969 l 1031 969 l 869 0 l 650 0 l 518 638 l 515 638 l 379 0 l 161 0 m 433 1032 l 543 1249 l 736 1249 l 597 1032 l 433 1032 z "},"Ŵ":{"ha":1036,"x_min":6,"x_max":1031,"o":"m 161 0 l 6 969 l 188 969 l 281 247 l 283 247 l 435 969 l 603 969 l 754 247 l 757 247 l 850 969 l 1031 969 l 869 0 l 650 0 l 518 638 l 515 638 l 379 0 l 161 0 m 278 1032 l 443 1249 l 599 1249 l 761 1032 l 600 1032 l 522 1126 l 519 1126 l 440 1032 l 278 1032 z "},"Ẅ":{"ha":1036,"x_min":6,"x_max":1031,"o":"m 161 0 l 6 969 l 188 969 l 281 247 l 283 247 l 435 969 l 603 969 l 754 247 l 757 247 l 850 969 l 1031 969 l 869 0 l 650 0 l 518 638 l 515 638 l 379 0 l 161 0 m 297 1117 q 324 1181 297 1156 q 389 1206 350 1206 q 456 1181 431 1206 q 481 1117 481 1157 q 455 1052 481 1078 q 389 1026 429 1026 q 324 1052 350 1026 q 297 1117 297 1078 m 561 1117 q 588 1181 561 1156 q 653 1206 614 1206 q 719 1181 694 1206 q 744 1117 744 1157 q 719 1052 744 1078 q 653 1026 693 1026 q 588 1052 614 1026 q 561 1117 561 1078 z "},"Ẁ":{"ha":1036,"x_min":6,"x_max":1031,"o":"m 161 0 l 6 969 l 188 969 l 281 247 l 283 247 l 435 969 l 603 969 l 754 247 l 757 247 l 850 969 l 1031 969 l 869 0 l 650 0 l 518 638 l 515 638 l 379 0 l 161 0 m 306 1249 l 501 1249 l 611 1032 l 444 1032 l 306 1249 z "},"X":{"ha":582,"x_min":0,"x_max":582,"o":"m 0 0 l 174 507 l 1 969 l 188 969 l 293 664 l 296 664 l 394 969 l 574 969 l 406 488 l 582 0 l 396 0 l 283 324 l 281 324 l 179 0 l 0 0 z "},"Y":{"ha":585,"x_min":0,"x_max":585,"o":"m 203 0 l 203 326 l 0 969 l 192 969 l 293 540 l 296 540 l 406 969 l 585 969 l 382 326 l 382 0 l 203 0 z "},"Ý":{"ha":585,"x_min":0,"x_max":585,"o":"m 203 0 l 203 326 l 0 969 l 192 969 l 293 540 l 296 540 l 406 969 l 585 969 l 382 326 l 382 0 l 203 0 m 207 1032 l 317 1249 l 510 1249 l 371 1032 l 207 1032 z "},"Ŷ":{"ha":585,"x_min":0,"x_max":585,"o":"m 203 0 l 203 326 l 0 969 l 192 969 l 293 540 l 296 540 l 406 969 l 585 969 l 382 326 l 382 0 l 203 0 m 51 1032 l 217 1249 l 372 1249 l 535 1032 l 374 1032 l 296 1126 l 293 1126 l 214 1032 l 51 1032 z "},"Ÿ":{"ha":585,"x_min":0,"x_max":585,"o":"m 203 0 l 203 326 l 0 969 l 192 969 l 293 540 l 296 540 l 406 969 l 585 969 l 382 326 l 382 0 l 203 0 m 71 1117 q 97 1181 71 1156 q 163 1206 124 1206 q 229 1181 204 1206 q 254 1117 254 1157 q 228 1052 254 1078 q 163 1026 203 1026 q 97 1052 124 1026 q 71 1117 71 1078 m 335 1117 q 361 1181 335 1156 q 426 1206 388 1206 q 493 1181 468 1206 q 518 1117 518 1157 q 492 1052 518 1078 q 426 1026 467 1026 q 361 1052 388 1026 q 335 1117 335 1078 z "},"Ỳ":{"ha":585,"x_min":0,"x_max":585,"o":"m 203 0 l 203 326 l 0 969 l 192 969 l 293 540 l 296 540 l 406 969 l 585 969 l 382 326 l 382 0 l 203 0 m 79 1249 l 275 1249 l 385 1032 l 218 1032 l 79 1249 z "},"Z":{"ha":510,"x_min":13,"x_max":499,"o":"m 13 0 l 13 113 l 286 800 l 33 800 l 33 969 l 499 969 l 499 857 l 225 169 l 497 169 l 497 0 l 13 0 z "},"Ź":{"ha":510,"x_min":13,"x_max":499,"o":"m 13 0 l 13 113 l 286 800 l 33 800 l 33 969 l 499 969 l 499 857 l 225 169 l 497 169 l 497 0 l 13 0 m 179 1032 l 289 1249 l 482 1249 l 343 1032 l 179 1032 z "},"Ž":{"ha":510,"x_min":13,"x_max":507,"o":"m 13 0 l 13 113 l 286 800 l 33 800 l 33 969 l 499 969 l 499 857 l 225 169 l 497 169 l 497 0 l 13 0 m 24 1249 l 185 1249 l 263 1154 l 265 1154 l 344 1249 l 507 1249 l 342 1032 l 186 1032 l 24 1249 z "},"Ż":{"ha":510,"x_min":13,"x_max":499,"o":"m 13 0 l 13 113 l 286 800 l 33 800 l 33 969 l 499 969 l 499 857 l 225 169 l 497 169 l 497 0 l 13 0 m 163 1131 q 192 1202 163 1176 q 267 1228 221 1228 q 342 1202 314 1228 q 371 1131 371 1176 q 342 1058 371 1085 q 267 1032 313 1032 q 192 1058 222 1032 q 163 1131 163 1085 z "},"a":{"ha":608,"x_min":19,"x_max":567,"o":"m 250 -7 q 85 59 150 -7 q 19 235 19 125 q 85 412 19 346 q 250 478 150 478 q 389 435 331 478 l 392 435 l 392 468 q 356 565 392 531 q 251 599 319 599 q 163 585 204 599 q 90 553 122 571 l 90 718 q 269 753 176 753 q 488 678 410 753 q 567 471 567 604 l 567 0 l 406 0 l 406 46 l 403 46 q 250 -7 343 -7 m 200 239 q 229 161 200 192 q 301 131 258 131 q 372 160 344 131 q 399 239 399 190 q 372 317 399 288 q 301 347 344 347 q 229 317 258 347 q 200 239 200 288 z "},"á":{"ha":608,"x_min":19,"x_max":567,"o":"m 250 -7 q 85 59 150 -7 q 19 235 19 125 q 85 412 19 346 q 250 478 150 478 q 389 435 331 478 l 392 435 l 392 468 q 356 565 392 531 q 251 599 319 599 q 163 585 204 599 q 90 553 122 571 l 90 718 q 269 753 176 753 q 488 678 410 753 q 567 471 567 604 l 567 0 l 406 0 l 406 46 l 403 46 q 250 -7 343 -7 m 200 239 q 229 161 200 192 q 301 131 258 131 q 372 160 344 131 q 399 239 399 190 q 372 317 399 288 q 301 347 344 347 q 229 317 258 347 q 200 239 200 288 m 224 807 l 333 1024 l 526 1024 l 388 807 l 224 807 z "},"ă":{"ha":608,"x_min":19,"x_max":567,"o":"m 250 -7 q 85 59 150 -7 q 19 235 19 125 q 85 412 19 346 q 250 478 150 478 q 389 435 331 478 l 392 435 l 392 468 q 356 565 392 531 q 251 599 319 599 q 163 585 204 599 q 90 553 122 571 l 90 718 q 269 753 176 753 q 488 678 410 753 q 567 471 567 604 l 567 0 l 406 0 l 406 46 l 403 46 q 250 -7 343 -7 m 86 1024 l 222 1024 q 308 928 231 928 q 396 1024 388 928 l 533 1024 q 469 858 528 917 q 308 800 410 800 q 149 859 207 800 q 86 1024 92 918 m 200 239 q 229 161 200 192 q 301 131 258 131 q 372 160 344 131 q 399 239 399 190 q 372 317 399 288 q 301 347 344 347 q 229 317 258 347 q 200 239 200 288 z "},"â":{"ha":608,"x_min":19,"x_max":567,"o":"m 250 -7 q 85 59 150 -7 q 19 235 19 125 q 85 412 19 346 q 250 478 150 478 q 389 435 331 478 l 392 435 l 392 468 q 356 565 392 531 q 251 599 319 599 q 163 585 204 599 q 90 553 122 571 l 90 718 q 269 753 176 753 q 488 678 410 753 q 567 471 567 604 l 567 0 l 406 0 l 406 46 l 403 46 q 250 -7 343 -7 m 68 807 l 233 1024 l 389 1024 l 551 807 l 390 807 l 313 901 l 310 901 l 231 807 l 68 807 m 200 239 q 229 161 200 192 q 301 131 258 131 q 372 160 344 131 q 399 239 399 190 q 372 317 399 288 q 301 347 344 347 q 229 317 258 347 q 200 239 200 288 z "},"ä":{"ha":608,"x_min":19,"x_max":567,"o":"m 250 -7 q 85 59 150 -7 q 19 235 19 125 q 85 412 19 346 q 250 478 150 478 q 389 435 331 478 l 392 435 l 392 468 q 356 565 392 531 q 251 599 319 599 q 163 585 204 599 q 90 553 122 571 l 90 718 q 269 753 176 753 q 488 678 410 753 q 567 471 567 604 l 567 0 l 406 0 l 406 46 l 403 46 q 250 -7 343 -7 m 88 892 q 114 956 88 931 q 179 981 140 981 q 246 956 221 981 q 271 892 271 932 q 245 827 271 853 q 179 801 219 801 q 114 827 140 801 q 88 892 88 853 m 200 239 q 229 161 200 192 q 301 131 258 131 q 372 160 344 131 q 399 239 399 190 q 372 317 399 288 q 301 347 344 347 q 229 317 258 347 q 200 239 200 288 m 351 892 q 378 956 351 931 q 443 981 404 981 q 510 956 485 981 q 535 892 535 932 q 509 827 535 853 q 443 801 483 801 q 378 827 404 801 q 351 892 351 853 z "},"à":{"ha":608,"x_min":19,"x_max":567,"o":"m 250 -7 q 85 59 150 -7 q 19 235 19 125 q 85 412 19 346 q 250 478 150 478 q 389 435 331 478 l 392 435 l 392 468 q 356 565 392 531 q 251 599 319 599 q 163 585 204 599 q 90 553 122 571 l 90 718 q 269 753 176 753 q 488 678 410 753 q 567 471 567 604 l 567 0 l 406 0 l 406 46 l 403 46 q 250 -7 343 -7 m 96 1024 l 292 1024 l 401 807 l 235 807 l 96 1024 m 200 239 q 229 161 200 192 q 301 131 258 131 q 372 160 344 131 q 399 239 399 190 q 372 317 399 288 q 301 347 344 347 q 229 317 258 347 q 200 239 200 288 z "},"ā":{"ha":608,"x_min":19,"x_max":567,"o":"m 250 -7 q 85 59 150 -7 q 19 235 19 125 q 85 412 19 346 q 250 478 150 478 q 389 435 331 478 l 392 435 l 392 468 q 356 565 392 531 q 251 599 319 599 q 163 585 204 599 q 90 553 122 571 l 90 718 q 269 753 176 753 q 488 678 410 753 q 567 471 567 604 l 567 0 l 406 0 l 406 46 l 403 46 q 250 -7 343 -7 m 118 821 l 118 963 l 504 963 l 504 821 l 118 821 m 200 239 q 229 161 200 192 q 301 131 258 131 q 372 160 344 131 q 399 239 399 190 q 372 317 399 288 q 301 347 344 347 q 229 317 258 347 q 200 239 200 288 z "},"ą":{"ha":608,"x_min":19,"x_max":567,"o":"m 250 -7 q 85 59 150 -7 q 19 235 19 125 q 85 412 19 346 q 250 478 150 478 q 389 435 331 478 l 392 435 l 392 468 q 356 565 392 531 q 251 599 319 599 q 163 585 204 599 q 90 553 122 571 l 90 718 q 269 753 176 753 q 488 678 410 753 q 567 471 567 604 l 567 0 q 503 -22 528 0 q 478 -71 478 -44 q 519 -107 478 -107 q 567 -96 540 -107 l 567 -231 q 481 -243 521 -243 q 368 -203 403 -243 q 333 -112 333 -162 q 352 -42 333 -74 q 406 17 371 -10 l 406 46 l 403 46 q 250 -7 343 -7 m 200 239 q 229 161 200 192 q 301 131 258 131 q 372 160 344 131 q 399 239 399 190 q 372 317 399 288 q 301 347 344 347 q 229 317 258 347 q 200 239 200 288 z "},"å":{"ha":608,"x_min":19,"x_max":567,"o":"m 250 -7 q 85 59 150 -7 q 19 235 19 125 q 85 412 19 346 q 250 478 150 478 q 389 435 331 478 l 392 435 l 392 468 q 356 565 392 531 q 251 599 319 599 q 163 585 204 599 q 90 553 122 571 l 90 718 q 269 753 176 753 q 488 678 410 753 q 567 471 567 604 l 567 0 l 406 0 l 406 46 l 403 46 q 250 -7 343 -7 m 143 954 q 191 1071 143 1025 q 311 1117 239 1117 q 432 1071 385 1117 q 479 954 479 1025 q 432 839 479 885 q 311 793 385 793 q 191 839 239 793 q 143 954 143 885 m 200 239 q 229 161 200 192 q 301 131 258 131 q 372 160 344 131 q 399 239 399 190 q 372 317 399 288 q 301 347 344 347 q 229 317 258 347 q 200 239 200 288 m 246 954 q 265 907 246 925 q 311 889 283 889 q 358 907 339 889 q 376 954 376 925 q 358 1002 376 983 q 311 1021 339 1021 q 265 1002 283 1021 q 246 954 246 983 z "},"ã":{"ha":608,"x_min":19,"x_max":568,"o":"m 250 -7 q 85 59 150 -7 q 19 235 19 125 q 85 412 19 346 q 250 478 150 478 q 389 435 331 478 l 392 435 l 392 468 q 356 565 392 531 q 251 599 319 599 q 163 585 204 599 q 90 553 122 571 l 90 718 q 269 753 176 753 q 488 678 410 753 q 567 471 567 604 l 567 0 l 406 0 l 406 46 l 403 46 q 250 -7 343 -7 m 54 810 q 101 948 54 899 q 215 997 147 997 q 290 982 258 997 q 348 951 322 967 q 397 936 374 936 q 446 994 439 936 l 568 994 q 522 856 568 906 q 407 807 476 807 q 332 822 364 807 q 274 853 300 838 q 225 868 249 868 q 176 810 183 868 l 54 810 m 200 239 q 229 161 200 192 q 301 131 258 131 q 372 160 344 131 q 399 239 399 190 q 372 317 399 288 q 301 347 344 347 q 229 317 258 347 q 200 239 200 288 z "},"æ":{"ha":1118,"x_min":19,"x_max":1110,"o":"m 789 -7 q 489 107 586 -7 l 486 107 q 265 -6 417 -6 q 86 61 153 -6 q 19 238 19 128 q 85 413 19 347 q 250 478 150 478 q 389 435 331 478 l 392 435 l 392 468 q 355 565 392 531 q 249 599 318 599 q 163 585 203 599 q 90 549 122 571 l 90 718 q 269 753 174 753 q 507 649 436 753 l 510 649 q 758 750 600 750 q 952 700 869 750 q 1072 552 1035 650 q 1085 310 1110 454 l 571 310 q 650 196 590 238 q 799 154 710 154 q 922 175 861 154 q 1024 231 982 196 l 1024 44 q 917 7 979 21 q 789 -7 856 -7 m 200 239 q 228 161 200 192 q 301 131 257 131 q 375 161 346 131 q 404 239 404 192 q 375 317 404 288 q 301 347 346 347 q 228 317 257 347 q 200 239 200 288 m 572 456 l 915 456 q 867 560 913 524 q 754 596 821 596 q 638 558 686 596 q 572 456 590 521 z "},"b":{"ha":778,"x_min":47,"x_max":754,"o":"m 421 -6 q 308 13 364 -6 q 213 74 253 32 l 210 74 l 210 0 l 47 0 l 47 994 l 222 994 l 222 690 l 225 690 q 419 751 304 751 q 592 703 517 751 q 711 571 668 656 q 754 372 754 486 q 711 174 754 260 q 593 42 668 89 q 421 -6 518 -6 m 215 374 q 267 217 215 272 q 394 161 318 161 q 523 218 474 161 q 572 372 572 275 q 523 528 572 471 q 394 585 474 585 q 267 529 318 585 q 215 374 215 474 z "},"c":{"ha":544,"x_min":22,"x_max":519,"o":"m 392 -10 q 199 38 282 -10 q 69 172 115 86 q 22 371 22 257 q 69 570 22 485 q 199 703 115 656 q 392 751 282 751 q 452 747 419 751 q 519 732 485 743 l 519 553 q 401 582 461 582 q 260 524 314 582 q 206 371 206 467 q 260 217 206 275 q 401 160 314 160 q 519 189 461 160 l 519 10 q 452 -6 485 -1 q 392 -10 419 -10 z "},"ć":{"ha":544,"x_min":22,"x_max":544,"o":"m 392 -10 q 199 38 282 -10 q 69 172 115 86 q 22 371 22 257 q 69 570 22 485 q 199 703 115 656 q 392 751 282 751 q 452 747 419 751 q 519 732 485 743 l 519 553 q 401 582 461 582 q 260 524 314 582 q 206 371 206 467 q 260 217 206 275 q 401 160 314 160 q 519 189 461 160 l 519 10 q 452 -6 485 -1 q 392 -10 419 -10 m 242 807 l 351 1024 l 544 1024 l 406 807 l 242 807 z "},"č":{"ha":544,"x_min":22,"x_max":569,"o":"m 392 -10 q 199 38 282 -10 q 69 172 115 86 q 22 371 22 257 q 69 570 22 485 q 199 703 115 656 q 392 751 282 751 q 452 747 419 751 q 519 732 485 743 l 519 553 q 401 582 461 582 q 260 524 314 582 q 206 371 206 467 q 260 217 206 275 q 401 160 314 160 q 519 189 461 160 l 519 10 q 452 -6 485 -1 q 392 -10 419 -10 m 86 1024 l 247 1024 l 325 929 l 328 929 l 407 1024 l 569 1024 l 404 807 l 249 807 l 86 1024 z "},"ç":{"ha":544,"x_min":22,"x_max":519,"o":"m 392 -10 l 389 -10 l 336 -215 l 169 -171 l 249 15 q 83 147 144 54 q 22 371 22 240 q 69 570 22 485 q 199 703 115 656 q 392 751 282 751 q 452 747 419 751 q 519 732 485 743 l 519 553 q 401 582 461 582 q 260 524 314 582 q 206 371 206 467 q 260 217 206 275 q 401 160 314 160 q 519 189 461 160 l 519 10 q 452 -6 485 -1 q 392 -10 419 -10 z "},"d":{"ha":778,"x_min":24,"x_max":731,"o":"m 357 -6 q 185 42 261 -6 q 67 174 110 89 q 24 372 24 260 q 67 571 24 486 q 185 703 110 656 q 358 751 261 751 q 553 690 474 751 l 556 690 l 556 994 l 731 994 l 731 0 l 568 0 l 568 74 l 565 74 q 469 13 525 32 q 357 -6 414 -6 m 206 372 q 255 218 206 275 q 383 161 304 161 q 512 217 461 161 q 563 374 563 272 q 512 529 563 474 q 383 585 461 585 q 255 528 304 585 q 206 372 206 471 z "},"ð":{"ha":786,"x_min":22,"x_max":764,"o":"m 394 -7 q 199 40 283 -7 q 69 169 115 88 q 22 356 22 251 q 65 532 22 453 q 187 658 107 611 q 376 706 267 706 q 463 696 422 706 l 464 697 q 388 794 431 746 l 129 743 l 104 849 l 300 888 q 244 941 274 914 q 182 994 214 968 l 396 994 q 433 959 415 976 q 469 922 451 942 l 669 963 l 694 857 l 556 829 q 623 742 592 786 q 679 653 654 697 q 742 510 719 581 q 764 363 764 440 q 717 171 764 254 q 588 40 671 88 q 394 -7 504 -7 m 206 365 q 258 219 206 276 q 394 163 310 163 q 530 220 478 163 q 582 365 582 278 q 530 508 582 451 q 394 564 478 564 q 258 508 310 564 q 206 365 206 451 z "},"ď":{"ha":778,"x_min":24,"x_max":939,"o":"m 357 -6 q 185 42 261 -6 q 67 174 110 89 q 24 372 24 260 q 67 571 24 486 q 185 703 110 656 q 358 751 261 751 q 553 690 474 751 l 556 690 l 556 994 l 731 994 l 731 0 l 568 0 l 568 74 l 565 74 q 469 13 525 32 q 357 -6 414 -6 m 206 372 q 255 218 206 275 q 383 161 304 161 q 512 217 461 161 q 563 374 563 272 q 512 529 563 474 q 383 585 461 585 q 255 528 304 585 q 206 372 206 471 m 779 804 l 779 1076 l 939 1076 l 900 804 l 779 804 z "},"đ":{"ha":814,"x_min":24,"x_max":800,"o":"m 332 794 l 332 931 l 561 931 l 561 1003 l 731 1003 l 731 931 l 800 931 l 800 794 l 731 794 l 731 0 l 568 0 l 568 74 l 565 74 q 469 13 525 32 q 357 -6 414 -6 q 185 42 261 -6 q 67 174 110 89 q 24 372 24 260 q 67 571 24 486 q 185 703 110 656 q 358 751 261 751 q 467 735 415 751 q 558 688 519 719 l 561 688 l 561 794 l 332 794 m 206 372 q 255 218 206 275 q 383 161 304 161 q 512 217 461 161 q 563 374 563 272 q 512 529 563 474 q 383 585 461 585 q 255 528 304 585 q 206 372 206 471 z "},"e":{"ha":750,"x_min":22,"x_max":742,"o":"m 421 -7 q 209 40 299 -7 q 71 173 119 88 q 22 371 22 258 q 69 570 22 485 q 198 703 115 656 q 389 750 281 750 q 583 700 500 750 q 704 552 667 650 q 717 310 742 454 l 207 310 q 284 196 226 238 q 431 154 342 154 q 547 172 485 154 q 656 231 608 190 l 656 44 q 546 6 608 18 q 421 -7 483 -7 m 208 456 l 547 456 q 499 560 544 524 q 388 596 453 596 q 274 558 321 596 q 208 456 226 521 z "},"é":{"ha":750,"x_min":22,"x_max":742,"o":"m 421 -7 q 209 40 299 -7 q 71 173 119 88 q 22 371 22 258 q 69 570 22 485 q 198 703 115 656 q 389 750 281 750 q 583 700 500 750 q 704 552 667 650 q 717 310 742 454 l 207 310 q 284 196 226 238 q 431 154 342 154 q 547 172 485 154 q 656 231 608 190 l 656 44 q 546 6 608 18 q 421 -7 483 -7 m 208 456 l 547 456 q 499 560 544 524 q 388 596 453 596 q 274 558 321 596 q 208 456 226 521 m 300 807 l 410 1024 l 603 1024 l 464 807 l 300 807 z "},"ě":{"ha":750,"x_min":22,"x_max":742,"o":"m 421 -7 q 209 40 299 -7 q 71 173 119 88 q 22 371 22 258 q 69 570 22 485 q 198 703 115 656 q 389 750 281 750 q 583 700 500 750 q 704 552 667 650 q 717 310 742 454 l 207 310 q 284 196 226 238 q 431 154 342 154 q 547 172 485 154 q 656 231 608 190 l 656 44 q 546 6 608 18 q 421 -7 483 -7 m 144 1024 l 306 1024 l 383 929 l 386 929 l 465 1024 l 628 1024 l 463 807 l 307 807 l 144 1024 m 208 456 l 547 456 q 499 560 544 524 q 388 596 453 596 q 274 558 321 596 q 208 456 226 521 z "},"ê":{"ha":750,"x_min":22,"x_max":742,"o":"m 421 -7 q 209 40 299 -7 q 71 173 119 88 q 22 371 22 258 q 69 570 22 485 q 198 703 115 656 q 389 750 281 750 q 583 700 500 750 q 704 552 667 650 q 717 310 742 454 l 207 310 q 284 196 226 238 q 431 154 342 154 q 547 172 485 154 q 656 231 608 190 l 656 44 q 546 6 608 18 q 421 -7 483 -7 m 144 807 l 310 1024 l 465 1024 l 628 807 l 467 807 l 389 901 l 386 901 l 307 807 l 144 807 m 208 456 l 547 456 q 499 560 544 524 q 388 596 453 596 q 274 558 321 596 q 208 456 226 521 z "},"ë":{"ha":750,"x_min":22,"x_max":742,"o":"m 421 -7 q 209 40 299 -7 q 71 173 119 88 q 22 371 22 258 q 69 570 22 485 q 198 703 115 656 q 389 750 281 750 q 583 700 500 750 q 704 552 667 650 q 717 310 742 454 l 207 310 q 284 196 226 238 q 431 154 342 154 q 547 172 485 154 q 656 231 608 190 l 656 44 q 546 6 608 18 q 421 -7 483 -7 m 164 892 q 190 956 164 931 q 256 981 217 981 q 322 956 297 981 q 347 892 347 932 q 322 827 347 853 q 256 801 296 801 q 190 827 217 801 q 164 892 164 853 m 208 456 l 547 456 q 499 560 544 524 q 388 596 453 596 q 274 558 321 596 q 208 456 226 521 m 428 892 q 454 956 428 931 q 519 981 481 981 q 586 956 561 981 q 611 892 611 932 q 585 827 611 853 q 519 801 560 801 q 454 827 481 801 q 428 892 428 853 z "},"ė":{"ha":750,"x_min":22,"x_max":742,"o":"m 421 -7 q 209 40 299 -7 q 71 173 119 88 q 22 371 22 258 q 69 570 22 485 q 198 703 115 656 q 389 750 281 750 q 583 700 500 750 q 704 552 667 650 q 717 310 742 454 l 207 310 q 284 196 226 238 q 431 154 342 154 q 547 172 485 154 q 656 231 608 190 l 656 44 q 546 6 608 18 q 421 -7 483 -7 m 208 456 l 547 456 q 499 560 544 524 q 388 596 453 596 q 274 558 321 596 q 208 456 226 521 m 283 906 q 313 977 283 951 q 388 1003 342 1003 q 463 977 435 1003 q 492 906 492 951 q 463 833 492 860 q 388 807 433 807 q 313 833 343 807 q 283 906 283 860 z "},"è":{"ha":750,"x_min":22,"x_max":742,"o":"m 421 -7 q 209 40 299 -7 q 71 173 119 88 q 22 371 22 258 q 69 570 22 485 q 198 703 115 656 q 389 750 281 750 q 583 700 500 750 q 704 552 667 650 q 717 310 742 454 l 207 310 q 284 196 226 238 q 431 154 342 154 q 547 172 485 154 q 656 231 608 190 l 656 44 q 546 6 608 18 q 421 -7 483 -7 m 172 1024 l 368 1024 l 478 807 l 311 807 l 172 1024 m 208 456 l 547 456 q 499 560 544 524 q 388 596 453 596 q 274 558 321 596 q 208 456 226 521 z "},"ē":{"ha":750,"x_min":22,"x_max":742,"o":"m 421 -7 q 209 40 299 -7 q 71 173 119 88 q 22 371 22 258 q 69 570 22 485 q 198 703 115 656 q 389 750 281 750 q 583 700 500 750 q 704 552 667 650 q 717 310 742 454 l 207 310 q 284 196 226 238 q 431 154 342 154 q 547 172 485 154 q 656 231 608 190 l 656 44 q 546 6 608 18 q 421 -7 483 -7 m 194 821 l 194 963 l 581 963 l 581 821 l 194 821 m 208 456 l 547 456 q 499 560 544 524 q 388 596 453 596 q 274 558 321 596 q 208 456 226 521 z "},"ę":{"ha":750,"x_min":22,"x_max":742,"o":"m 424 -243 q 311 -203 346 -243 q 276 -112 276 -162 q 329 1 276 -47 q 104 125 186 26 q 22 371 22 224 q 69 570 22 485 q 198 703 115 656 q 389 750 281 750 q 583 700 500 750 q 704 552 667 650 q 717 310 742 454 l 207 310 q 284 196 226 238 q 431 154 342 154 q 547 172 485 154 q 656 231 608 190 l 656 44 q 574 13 619 25 q 481 -4 529 0 q 438 -31 454 -11 q 421 -71 421 -50 q 463 -107 421 -107 q 510 -96 483 -107 l 510 -231 q 424 -243 464 -243 m 208 456 l 547 456 q 499 560 544 524 q 388 596 453 596 q 274 558 321 596 q 208 456 226 521 z "},"f":{"ha":414,"x_min":14,"x_max":407,"o":"m 83 797 q 140 960 83 910 q 290 1011 197 1011 q 352 1006 322 1011 q 407 994 382 1001 l 407 828 q 322 851 360 851 q 277 837 296 851 q 258 786 258 822 l 258 744 l 401 744 l 401 588 l 258 588 l 258 0 l 83 0 l 83 588 l 14 588 l 14 744 l 83 744 l 83 797 z "},"g":{"ha":761,"x_min":24,"x_max":717,"o":"m 351 -194 q 226 -183 285 -194 q 115 -153 167 -171 l 115 31 q 225 -17 165 1 q 350 -36 285 -36 q 490 1 439 -36 q 542 111 542 38 l 542 131 l 539 131 q 448 79 497 94 q 346 64 399 64 q 178 106 251 64 q 65 224 106 147 q 24 403 24 300 q 65 586 24 508 q 181 707 107 664 q 353 750 256 750 q 553 681 475 750 l 556 681 l 556 744 l 717 744 l 717 128 q 668 -59 717 13 q 537 -162 619 -131 q 351 -194 454 -194 m 207 400 q 251 268 207 321 q 378 215 296 215 q 502 265 456 215 q 549 399 549 314 q 502 533 549 483 q 376 583 456 583 q 251 531 294 583 q 207 400 207 478 z "},"ģ":{"ha":761,"x_min":24,"x_max":717,"o":"m 351 -194 q 226 -183 285 -194 q 115 -153 167 -171 l 115 31 q 225 -17 165 1 q 350 -36 285 -36 q 490 1 439 -36 q 542 111 542 38 l 542 131 l 539 131 q 448 79 497 94 q 346 64 399 64 q 178 106 251 64 q 65 224 106 147 q 24 403 24 300 q 65 586 24 508 q 181 707 107 664 q 353 750 256 750 q 553 681 475 750 l 556 681 l 556 744 l 717 744 l 717 128 q 668 -59 717 13 q 537 -162 619 -131 q 351 -194 454 -194 m 207 400 q 251 268 207 321 q 378 215 296 215 q 502 265 456 215 q 549 399 549 314 q 502 533 549 483 q 376 583 456 583 q 251 531 294 583 q 207 400 207 478 m 304 807 l 357 1024 l 499 1024 l 471 807 l 304 807 z "},"h":{"ha":661,"x_min":47,"x_max":617,"o":"m 47 0 l 47 994 l 222 994 l 222 689 l 225 689 q 383 750 283 750 q 553 683 489 750 q 617 503 617 617 l 617 0 l 443 0 l 443 467 q 413 552 443 521 q 333 583 383 583 q 252 552 282 583 q 222 467 222 521 l 222 0 l 47 0 z "},"i":{"ha":267,"x_min":29,"x_max":238,"o":"m 46 0 l 46 744 l 221 744 l 221 0 l 46 0 m 29 906 q 58 977 29 951 q 133 1003 88 1003 q 209 977 181 1003 q 238 906 238 951 q 208 833 238 860 q 133 807 179 807 q 59 833 89 807 q 29 906 29 860 z "},"ı":{"ha":267,"x_min":46,"x_max":221,"o":"m 46 0 l 46 744 l 221 744 l 221 0 l 46 0 z "},"í":{"ha":267,"x_min":46,"x_max":349,"o":"m 46 0 l 46 744 l 221 744 l 221 0 l 46 0 m 46 807 l 156 1024 l 349 1024 l 210 807 l 46 807 z "},"î":{"ha":267,"x_min":-110,"x_max":374,"o":"m 46 0 l 46 744 l 221 744 l 221 0 l 46 0 m -110 807 l 56 1024 l 211 1024 l 374 807 l 213 807 l 135 901 l 132 901 l 53 807 l -110 807 z "},"ï":{"ha":267,"x_min":-90,"x_max":357,"o":"m 46 0 l 46 744 l 221 744 l 221 0 l 46 0 m -90 892 q -64 956 -90 931 q 1 981 -37 981 q 68 956 43 981 q 93 892 93 932 q 67 827 93 853 q 1 801 42 801 q -64 827 -37 801 q -90 892 -90 853 m 174 892 q 200 956 174 931 q 265 981 226 981 q 332 956 307 981 q 357 892 357 932 q 331 827 357 853 q 265 801 306 801 q 200 827 226 801 q 174 892 174 853 z "},"ì":{"ha":267,"x_min":-82,"x_max":224,"o":"m 46 0 l 46 744 l 221 744 l 221 0 l 46 0 m -82 1024 l 114 1024 l 224 807 l 57 807 l -82 1024 z "},"ĳ":{"ha":535,"x_min":29,"x_max":506,"o":"m 46 0 l 46 744 l 221 744 l 221 0 l 46 0 m 29 906 q 58 977 29 951 q 133 1003 88 1003 q 209 977 181 1003 q 238 906 238 951 q 208 833 238 860 q 133 807 179 807 q 59 833 89 807 q 29 906 29 860 m 217 -182 l 217 -37 q 244 -44 232 -42 q 268 -47 257 -47 q 300 -37 286 -47 q 314 1 314 -28 l 314 744 l 489 744 l 489 13 q 436 -147 489 -100 q 303 -194 383 -194 q 217 -182 261 -194 m 297 906 q 326 977 297 951 q 401 1003 356 1003 q 477 977 449 1003 q 506 906 506 951 q 476 833 506 860 q 401 807 447 807 q 327 833 357 807 q 297 906 297 860 z "},"ī":{"ha":267,"x_min":-60,"x_max":326,"o":"m 46 0 l 46 744 l 221 744 l 221 0 l 46 0 m -60 821 l -60 963 l 326 963 l 326 821 l -60 821 z "},"į":{"ha":267,"x_min":-14,"x_max":238,"o":"m 133 807 q 59 833 89 807 q 29 906 29 860 q 58 977 29 951 q 133 1003 88 1003 q 209 977 181 1003 q 238 906 238 951 q 208 833 238 860 q 133 807 179 807 m -14 -112 q 46 7 -14 -44 l 46 744 l 221 744 l 221 0 l 219 0 q 156 -22 181 0 q 131 -71 131 -44 q 172 -107 131 -107 q 219 -96 193 -107 l 219 -231 q 133 -243 174 -243 q 21 -203 56 -243 q -14 -112 -14 -162 z "},"j":{"ha":279,"x_min":-39,"x_max":250,"o":"m 47 -194 q -39 -182 6 -194 l -39 -37 q -11 -44 -24 -42 q 13 -47 1 -47 q 44 -37 31 -47 q 58 1 58 -28 l 58 744 l 233 744 l 233 13 q 181 -147 233 -100 q 47 -194 128 -194 m 42 906 q 71 977 42 951 q 146 1003 100 1003 q 222 977 193 1003 q 250 906 250 951 q 221 833 250 860 q 146 807 192 807 q 72 833 101 807 q 42 906 42 860 z "},"ȷ":{"ha":279,"x_min":-39,"x_max":233,"o":"m 47 -194 q -39 -182 6 -194 l -39 -37 q -11 -44 -24 -42 q 13 -47 1 -47 q 44 -37 31 -47 q 58 1 58 -28 l 58 744 l 233 744 l 233 13 q 181 -147 233 -100 q 47 -194 128 -194 z "},"k":{"ha":611,"x_min":47,"x_max":608,"o":"m 47 0 l 47 994 l 222 994 l 222 476 l 225 476 l 397 744 l 608 744 l 388 446 q 523 374 474 433 q 572 215 572 315 l 572 0 l 399 0 l 399 179 q 294 304 399 304 l 222 304 l 222 0 l 47 0 z "},"ķ":{"ha":611,"x_min":47,"x_max":608,"o":"m 47 0 l 47 994 l 222 994 l 222 476 l 225 476 l 397 744 l 608 744 l 388 446 q 523 374 474 433 q 572 215 572 315 l 572 0 l 399 0 l 399 179 q 294 304 399 304 l 222 304 l 222 0 l 47 0 m 197 -243 l 225 -56 l 392 -56 l 339 -243 l 197 -243 z "},"l":{"ha":269,"x_min":47,"x_max":222,"o":"m 47 0 l 47 994 l 222 994 l 222 0 l 47 0 z "},"ĺ":{"ha":269,"x_min":46,"x_max":349,"o":"m 47 0 l 47 994 l 222 994 l 222 0 l 47 0 m 46 1057 l 156 1274 l 349 1274 l 210 1057 l 46 1057 z "},"ľ":{"ha":269,"x_min":47,"x_max":432,"o":"m 47 0 l 47 994 l 222 994 l 222 0 l 47 0 m 272 804 l 272 1076 l 432 1076 l 393 804 l 272 804 z "},"ļ":{"ha":269,"x_min":22,"x_max":222,"o":"m 47 0 l 47 994 l 222 994 l 222 0 l 47 0 m 22 -243 l 50 -56 l 217 -56 l 164 -243 l 22 -243 z "},"ł":{"ha":403,"x_min":14,"x_max":389,"o":"m 114 0 l 114 453 l 14 404 l 14 572 l 114 621 l 114 994 l 289 994 l 289 704 l 389 753 l 389 585 l 289 536 l 289 0 l 114 0 z "},"m":{"ha":1033,"x_min":47,"x_max":989,"o":"m 47 0 l 47 744 l 210 744 l 210 682 l 213 682 q 375 750 279 750 q 561 660 499 750 l 564 660 q 754 750 636 750 q 925 684 861 750 q 989 503 989 618 l 989 0 l 815 0 l 815 467 q 787 552 815 521 q 710 583 758 583 q 634 552 663 583 q 606 467 606 521 l 606 0 l 432 0 l 432 467 q 403 552 432 521 q 326 583 375 583 q 250 552 278 583 q 222 467 222 521 l 222 0 l 47 0 z "},"n":{"ha":663,"x_min":47,"x_max":618,"o":"m 47 0 l 47 744 l 210 744 l 210 682 l 213 682 q 381 750 279 750 q 553 683 488 750 q 618 503 618 617 l 618 0 l 443 0 l 443 467 q 413 552 443 521 q 333 583 383 583 q 253 552 283 583 q 222 467 222 521 l 222 0 l 47 0 z "},"ń":{"ha":663,"x_min":47,"x_max":618,"o":"m 47 0 l 47 744 l 210 744 l 210 682 l 213 682 q 381 750 279 750 q 553 683 488 750 q 618 503 618 617 l 618 0 l 443 0 l 443 467 q 413 552 443 521 q 333 583 383 583 q 253 552 283 583 q 222 467 222 521 l 222 0 l 47 0 m 243 807 l 353 1024 l 546 1024 l 407 807 l 243 807 z "},"ň":{"ha":663,"x_min":47,"x_max":618,"o":"m 47 0 l 47 744 l 210 744 l 210 682 l 213 682 q 381 750 279 750 q 553 683 488 750 q 618 503 618 617 l 618 0 l 443 0 l 443 467 q 413 552 443 521 q 333 583 383 583 q 253 552 283 583 q 222 467 222 521 l 222 0 l 47 0 m 88 1024 l 249 1024 l 326 929 l 329 929 l 408 1024 l 571 1024 l 406 807 l 250 807 l 88 1024 z "},"ņ":{"ha":663,"x_min":47,"x_max":618,"o":"m 47 0 l 47 744 l 210 744 l 210 682 l 213 682 q 381 750 279 750 q 553 683 488 750 q 618 503 618 617 l 618 0 l 443 0 l 443 467 q 413 552 443 521 q 333 583 383 583 q 253 552 283 583 q 222 467 222 521 l 222 0 l 47 0 m 218 -243 l 246 -56 l 413 -56 l 360 -243 l 218 -243 z "},"ñ":{"ha":663,"x_min":47,"x_max":618,"o":"m 47 0 l 47 744 l 210 744 l 210 682 l 213 682 q 381 750 279 750 q 553 683 488 750 q 618 503 618 617 l 618 0 l 443 0 l 443 467 q 413 552 443 521 q 333 583 383 583 q 253 552 283 583 q 222 467 222 521 l 222 0 l 47 0 m 74 810 q 120 948 74 899 q 235 997 167 997 q 310 982 278 997 q 367 951 342 967 q 417 936 393 936 q 465 994 458 936 l 588 994 q 542 856 588 906 q 426 807 496 807 q 351 822 383 807 q 294 853 319 838 q 244 868 268 868 q 196 810 203 868 l 74 810 z "},"ŋ":{"ha":663,"x_min":47,"x_max":618,"o":"m 432 -194 q 346 -182 390 -194 l 346 -37 q 374 -44 361 -42 q 397 -47 386 -47 q 429 -37 415 -47 q 443 1 443 -28 l 443 467 q 413 552 443 521 q 333 583 383 583 q 253 552 283 583 q 222 467 222 521 l 222 0 l 47 0 l 47 744 l 210 744 l 210 682 l 213 682 q 381 750 279 750 q 553 683 488 750 q 618 503 618 617 l 618 13 q 565 -147 618 -100 q 432 -194 513 -194 z "},"o":{"ha":786,"x_min":22,"x_max":764,"o":"m 394 -7 q 199 41 283 -7 q 69 174 115 89 q 22 372 22 260 q 69 570 22 485 q 199 703 115 656 q 394 751 283 751 q 588 703 504 751 q 717 570 671 656 q 764 372 764 485 q 717 174 764 260 q 588 41 671 89 q 394 -7 504 -7 m 206 372 q 258 221 206 279 q 394 163 310 163 q 530 221 478 163 q 582 372 582 279 q 530 524 582 467 q 394 582 478 582 q 258 524 310 582 q 206 372 206 467 z "},"ó":{"ha":786,"x_min":22,"x_max":764,"o":"m 394 -7 q 199 41 283 -7 q 69 174 115 89 q 22 372 22 260 q 69 570 22 485 q 199 703 115 656 q 394 751 283 751 q 588 703 504 751 q 717 570 671 656 q 764 372 764 485 q 717 174 764 260 q 588 41 671 89 q 394 -7 504 -7 m 206 372 q 258 221 206 279 q 394 163 310 163 q 530 221 478 163 q 582 372 582 279 q 530 524 582 467 q 394 582 478 582 q 258 524 310 582 q 206 372 206 467 m 307 807 l 417 1024 l 610 1024 l 471 807 l 307 807 z "},"ô":{"ha":786,"x_min":22,"x_max":764,"o":"m 394 -7 q 199 41 283 -7 q 69 174 115 89 q 22 372 22 260 q 69 570 22 485 q 199 703 115 656 q 394 751 283 751 q 588 703 504 751 q 717 570 671 656 q 764 372 764 485 q 717 174 764 260 q 588 41 671 89 q 394 -7 504 -7 m 151 807 l 317 1024 l 472 1024 l 635 807 l 474 807 l 396 901 l 393 901 l 314 807 l 151 807 m 206 372 q 258 221 206 279 q 394 163 310 163 q 530 221 478 163 q 582 372 582 279 q 530 524 582 467 q 394 582 478 582 q 258 524 310 582 q 206 372 206 467 z "},"ö":{"ha":786,"x_min":22,"x_max":764,"o":"m 394 -7 q 199 41 283 -7 q 69 174 115 89 q 22 372 22 260 q 69 570 22 485 q 199 703 115 656 q 394 751 283 751 q 588 703 504 751 q 717 570 671 656 q 764 372 764 485 q 717 174 764 260 q 588 41 671 89 q 394 -7 504 -7 m 171 892 q 197 956 171 931 q 263 981 224 981 q 329 956 304 981 q 354 892 354 932 q 328 827 354 853 q 263 801 303 801 q 197 827 224 801 q 171 892 171 853 m 206 372 q 258 221 206 279 q 394 163 310 163 q 530 221 478 163 q 582 372 582 279 q 530 524 582 467 q 394 582 478 582 q 258 524 310 582 q 206 372 206 467 m 435 892 q 461 956 435 931 q 526 981 488 981 q 593 956 568 981 q 618 892 618 932 q 592 827 618 853 q 526 801 567 801 q 461 827 488 801 q 435 892 435 853 z "},"ò":{"ha":786,"x_min":22,"x_max":764,"o":"m 394 -7 q 199 41 283 -7 q 69 174 115 89 q 22 372 22 260 q 69 570 22 485 q 199 703 115 656 q 394 751 283 751 q 588 703 504 751 q 717 570 671 656 q 764 372 764 485 q 717 174 764 260 q 588 41 671 89 q 394 -7 504 -7 m 179 1024 l 375 1024 l 485 807 l 318 807 l 179 1024 m 206 372 q 258 221 206 279 q 394 163 310 163 q 530 221 478 163 q 582 372 582 279 q 530 524 582 467 q 394 582 478 582 q 258 524 310 582 q 206 372 206 467 z "},"ő":{"ha":786,"x_min":22,"x_max":764,"o":"m 394 -7 q 199 41 283 -7 q 69 174 115 89 q 22 372 22 260 q 69 570 22 485 q 199 703 115 656 q 394 751 283 751 q 588 703 504 751 q 717 570 671 656 q 764 372 764 485 q 717 174 764 260 q 588 41 671 89 q 394 -7 504 -7 m 206 372 q 258 221 206 279 q 394 163 310 163 q 530 221 478 163 q 582 372 582 279 q 530 524 582 467 q 394 582 478 582 q 258 524 310 582 q 206 372 206 467 m 210 807 l 278 1024 l 442 1024 l 346 807 l 210 807 m 432 807 l 528 1024 l 699 1024 l 574 807 l 432 807 z "},"ō":{"ha":786,"x_min":22,"x_max":764,"o":"m 394 -7 q 199 41 283 -7 q 69 174 115 89 q 22 372 22 260 q 69 570 22 485 q 199 703 115 656 q 394 751 283 751 q 588 703 504 751 q 717 570 671 656 q 764 372 764 485 q 717 174 764 260 q 588 41 671 89 q 394 -7 504 -7 m 201 821 l 201 963 l 588 963 l 588 821 l 201 821 m 206 372 q 258 221 206 279 q 394 163 310 163 q 530 221 478 163 q 582 372 582 279 q 530 524 582 467 q 394 582 478 582 q 258 524 310 582 q 206 372 206 467 z "},"ø":{"ha":792,"x_min":21,"x_max":771,"o":"m 124 -57 l 21 28 l 103 126 q 45 237 65 175 q 25 372 25 299 q 72 570 25 485 q 202 703 118 656 q 397 751 286 751 q 499 740 451 751 q 588 706 547 728 l 668 801 l 771 717 l 689 618 q 767 372 767 518 q 720 174 767 260 q 590 41 674 89 q 397 -7 507 -7 q 294 6 342 -7 q 204 40 246 18 l 124 -57 m 201 372 q 222 268 201 313 l 478 574 q 397 590 443 590 q 256 531 310 590 q 201 372 201 471 m 314 171 q 397 154 351 154 q 538 215 483 154 q 592 372 592 275 q 571 478 592 432 l 314 171 z "},"õ":{"ha":786,"x_min":22,"x_max":764,"o":"m 394 -7 q 199 41 283 -7 q 69 174 115 89 q 22 372 22 260 q 69 570 22 485 q 199 703 115 656 q 394 751 283 751 q 588 703 504 751 q 717 570 671 656 q 764 372 764 485 q 717 174 764 260 q 588 41 671 89 q 394 -7 504 -7 m 138 810 q 184 948 138 899 q 299 997 231 997 q 374 982 342 997 q 431 951 406 967 q 481 936 457 936 q 529 994 522 936 l 651 994 q 606 856 651 906 q 490 807 560 807 q 415 822 447 807 q 358 853 383 838 q 308 868 332 868 q 260 810 267 868 l 138 810 m 206 372 q 258 221 206 279 q 394 163 310 163 q 530 221 478 163 q 582 372 582 279 q 530 524 582 467 q 394 582 478 582 q 258 524 310 582 q 206 372 206 467 z "},"œ":{"ha":1296,"x_min":22,"x_max":1288,"o":"m 393 -7 q 199 41 283 -7 q 69 174 115 89 q 22 372 22 260 q 69 570 22 485 q 199 703 115 656 q 393 751 283 751 q 664 633 567 751 l 667 633 q 935 750 763 750 q 1129 700 1046 750 q 1250 552 1213 650 q 1263 310 1288 454 l 753 310 q 830 196 772 238 q 976 154 888 154 q 1092 172 1031 154 q 1201 231 1154 190 l 1201 44 q 1092 6 1154 18 q 968 -7 1029 -7 q 669 115 771 -7 l 667 115 q 393 -7 569 -7 m 206 372 q 258 221 206 279 q 394 163 310 163 q 530 221 478 163 q 582 372 582 279 q 530 524 582 467 q 394 582 478 582 q 258 524 310 582 q 206 372 206 467 m 754 456 l 1093 456 q 1044 560 1090 524 q 933 596 999 596 q 819 558 867 596 q 754 456 772 521 z "},"p":{"ha":778,"x_min":47,"x_max":754,"o":"m 47 -187 l 47 744 l 210 744 l 210 671 l 213 671 q 308 731 253 713 q 421 750 364 750 q 593 703 518 750 q 711 571 668 656 q 754 372 754 486 q 711 174 754 260 q 592 41 668 89 q 419 -7 517 -7 q 225 54 304 -7 l 222 54 l 222 -187 l 47 -187 m 215 371 q 267 215 215 271 q 394 160 318 160 q 523 217 474 160 q 572 372 572 275 q 523 527 572 471 q 394 583 474 583 q 267 528 318 583 q 215 371 215 472 z "},"þ":{"ha":778,"x_min":47,"x_max":754,"o":"m 47 -187 l 47 994 l 222 994 l 222 690 l 225 690 q 419 751 304 751 q 592 703 517 751 q 711 571 668 656 q 754 372 754 486 q 711 174 754 260 q 592 41 668 89 q 419 -7 517 -7 q 225 54 304 -7 l 222 54 l 222 -187 l 47 -187 m 215 372 q 267 215 215 271 q 394 160 318 160 q 523 217 474 160 q 572 372 572 275 q 523 528 572 471 q 394 585 474 585 q 267 529 318 585 q 215 372 215 474 z "},"q":{"ha":778,"x_min":24,"x_max":731,"o":"m 556 -187 l 556 54 l 553 54 q 358 -7 474 -7 q 185 41 261 -7 q 67 174 110 89 q 24 372 24 260 q 67 571 24 486 q 185 703 110 656 q 357 750 261 750 q 469 731 414 750 q 565 671 525 713 l 568 671 l 568 744 l 731 744 l 731 -187 l 556 -187 m 206 372 q 255 217 206 275 q 383 160 304 160 q 512 215 461 160 q 563 371 563 271 q 512 528 563 472 q 383 583 461 583 q 255 527 304 583 q 206 372 206 471 z "},"r":{"ha":426,"x_min":47,"x_max":413,"o":"m 47 0 l 47 744 l 210 744 l 210 683 l 213 683 q 358 751 261 751 q 383 750 369 751 q 413 746 397 749 l 413 558 q 372 572 394 567 q 326 578 350 578 q 253 553 283 578 q 222 472 222 529 l 222 0 l 47 0 z "},"ŕ":{"ha":426,"x_min":47,"x_max":454,"o":"m 47 0 l 47 744 l 210 744 l 210 683 l 213 683 q 358 751 261 751 q 383 750 369 751 q 413 746 397 749 l 413 558 q 372 572 394 567 q 326 578 350 578 q 253 553 283 578 q 222 472 222 529 l 222 0 l 47 0 m 151 807 l 261 1024 l 454 1024 l 315 807 l 151 807 z "},"ř":{"ha":426,"x_min":-4,"x_max":479,"o":"m 47 0 l 47 744 l 210 744 l 210 683 l 213 683 q 358 751 261 751 q 383 750 369 751 q 413 746 397 749 l 413 558 q 372 572 394 567 q 326 578 350 578 q 253 553 283 578 q 222 472 222 529 l 222 0 l 47 0 m -4 1024 l 157 1024 l 235 929 l 238 929 l 317 1024 l 479 1024 l 314 807 l 158 807 l -4 1024 z "},"ŗ":{"ha":426,"x_min":22,"x_max":413,"o":"m 47 0 l 47 744 l 210 744 l 210 683 l 213 683 q 358 751 261 751 q 383 750 369 751 q 413 746 397 749 l 413 558 q 372 572 394 567 q 326 578 350 578 q 253 553 283 578 q 222 472 222 529 l 222 0 l 47 0 m 22 -243 l 50 -56 l 217 -56 l 164 -243 l 22 -243 z "},"s":{"ha":433,"x_min":28,"x_max":421,"o":"m 183 -10 q 107 -3 146 -10 q 31 17 68 4 l 31 197 q 103 163 71 175 q 167 151 136 151 q 217 164 199 151 q 236 206 236 176 q 224 245 236 226 q 185 293 213 264 l 115 368 q 48 465 68 419 q 28 560 28 510 q 89 703 28 654 q 251 753 150 753 q 308 749 281 753 q 364 739 336 746 l 364 575 q 258 604 304 604 q 200 561 200 604 q 238 494 200 533 l 314 414 q 396 308 371 354 q 421 206 421 263 q 356 47 421 104 q 183 -10 290 -10 z "},"ś":{"ha":433,"x_min":28,"x_max":421,"o":"m 183 -10 q 107 -3 146 -10 q 31 17 68 4 l 31 197 q 103 163 71 175 q 167 151 136 151 q 217 164 199 151 q 236 206 236 176 q 224 245 236 226 q 185 293 213 264 l 115 368 q 48 465 68 419 q 28 560 28 510 q 89 703 28 654 q 251 753 150 753 q 308 749 281 753 q 364 739 336 746 l 364 575 q 258 604 304 604 q 200 561 200 604 q 238 494 200 533 l 314 414 q 396 308 371 354 q 421 206 421 263 q 356 47 421 104 q 183 -10 290 -10 m 117 807 l 226 1024 l 419 1024 l 281 807 l 117 807 z "},"š":{"ha":433,"x_min":-39,"x_max":444,"o":"m 183 -10 q 107 -3 146 -10 q 31 17 68 4 l 31 197 q 103 163 71 175 q 167 151 136 151 q 217 164 199 151 q 236 206 236 176 q 224 245 236 226 q 185 293 213 264 l 115 368 q 48 465 68 419 q 28 560 28 510 q 89 703 28 654 q 251 753 150 753 q 308 749 281 753 q 364 739 336 746 l 364 575 q 258 604 304 604 q 200 561 200 604 q 238 494 200 533 l 314 414 q 396 308 371 354 q 421 206 421 263 q 356 47 421 104 q 183 -10 290 -10 m -39 1024 l 122 1024 l 200 929 l 203 929 l 282 1024 l 444 1024 l 279 807 l 124 807 l -39 1024 z "},"ş":{"ha":433,"x_min":28,"x_max":421,"o":"m 225 -215 l 58 -171 l 128 -6 q 79 3 104 -3 q 31 17 54 8 l 31 197 q 103 163 71 175 q 167 151 136 151 q 217 164 199 151 q 236 206 236 176 q 224 245 236 226 q 185 293 213 264 l 115 368 q 48 465 68 419 q 28 560 28 510 q 89 703 28 654 q 251 753 150 753 q 308 749 281 753 q 364 739 336 746 l 364 575 q 258 604 304 604 q 200 561 200 604 q 238 494 200 533 l 314 414 q 396 308 371 354 q 421 206 421 263 q 384 78 421 129 q 282 6 347 26 l 225 -215 z "},"ß":{"ha":769,"x_min":44,"x_max":749,"o":"m 418 -10 q 352 -5 383 -10 q 290 10 321 0 l 290 189 q 408 160 349 160 q 522 199 479 160 q 565 306 565 239 q 519 412 565 378 q 404 446 472 446 l 339 446 l 339 599 l 353 599 q 439 632 410 599 q 468 717 468 665 q 435 808 468 774 q 344 842 401 842 q 253 803 286 842 q 219 694 219 765 l 219 0 l 44 0 l 44 696 q 124 923 44 843 q 346 1003 204 1003 q 560 933 481 1003 q 639 750 639 863 q 617 645 639 690 q 564 572 596 600 l 564 569 q 695 481 642 547 q 749 303 749 414 q 707 140 749 210 q 591 30 665 69 q 418 -10 517 -10 z "},"t":{"ha":447,"x_min":7,"x_max":419,"o":"m 292 -10 q 140 42 192 -10 q 89 206 89 93 l 89 588 l 7 588 l 7 694 q 103 750 72 715 q 142 857 133 785 l 146 894 l 264 894 l 264 744 l 419 744 l 419 588 l 264 588 l 264 219 q 281 171 264 185 q 325 157 299 157 q 413 178 365 157 l 413 8 q 355 -5 386 0 q 292 -10 324 -10 z "},"ŧ":{"ha":447,"x_min":7,"x_max":419,"o":"m 7 347 l 7 490 l 96 490 l 96 588 l 7 588 l 7 694 q 99 749 71 718 q 138 843 128 781 l 146 894 l 264 894 l 264 744 l 419 744 l 419 588 l 264 588 l 264 490 l 419 490 l 419 347 l 264 347 l 264 219 q 281 171 264 185 q 325 157 299 157 q 413 178 365 157 l 413 8 q 355 -5 386 0 q 292 -10 324 -10 q 145 42 194 -10 q 96 206 96 93 l 96 347 l 7 347 z "},"ť":{"ha":447,"x_min":7,"x_max":472,"o":"m 292 -10 q 140 42 192 -10 q 89 206 89 93 l 89 588 l 7 588 l 7 694 q 103 750 72 715 q 142 857 133 785 l 146 894 l 264 894 l 264 744 l 419 744 l 419 588 l 264 588 l 264 219 q 281 171 264 185 q 325 157 299 157 q 413 178 365 157 l 413 8 q 355 -5 386 0 q 292 -10 324 -10 m 313 804 l 313 1076 l 472 1076 l 433 804 l 313 804 z "},"ţ":{"ha":447,"x_min":7,"x_max":419,"o":"m 7 694 q 103 750 72 715 q 142 857 133 785 l 146 894 l 264 894 l 264 744 l 419 744 l 419 588 l 264 588 l 264 219 q 281 171 264 185 q 325 157 299 157 q 413 178 365 157 l 413 8 q 315 -8 369 -6 l 263 -215 l 96 -171 l 175 15 q 89 206 89 64 l 89 588 l 7 588 l 7 694 z "},"u":{"ha":660,"x_min":44,"x_max":613,"o":"m 281 -6 q 108 61 172 -6 q 44 242 44 128 l 44 744 l 219 744 l 219 278 q 248 192 219 224 q 326 161 276 161 q 408 192 378 161 q 438 278 438 224 l 438 744 l 613 744 l 613 0 l 450 0 l 450 63 l 447 63 q 281 -6 381 -6 z "},"ú":{"ha":660,"x_min":44,"x_max":613,"o":"m 281 -6 q 108 61 172 -6 q 44 242 44 128 l 44 744 l 219 744 l 219 278 q 248 192 219 224 q 326 161 276 161 q 408 192 378 161 q 438 278 438 224 l 438 744 l 613 744 l 613 0 l 450 0 l 450 63 l 447 63 q 281 -6 381 -6 m 242 807 l 351 1024 l 544 1024 l 406 807 l 242 807 z "},"û":{"ha":660,"x_min":44,"x_max":613,"o":"m 281 -6 q 108 61 172 -6 q 44 242 44 128 l 44 744 l 219 744 l 219 278 q 248 192 219 224 q 326 161 276 161 q 408 192 378 161 q 438 278 438 224 l 438 744 l 613 744 l 613 0 l 450 0 l 450 63 l 447 63 q 281 -6 381 -6 m 86 807 l 251 1024 l 407 1024 l 569 807 l 408 807 l 331 901 l 328 901 l 249 807 l 86 807 z "},"ü":{"ha":660,"x_min":44,"x_max":613,"o":"m 281 -6 q 108 61 172 -6 q 44 242 44 128 l 44 744 l 219 744 l 219 278 q 248 192 219 224 q 326 161 276 161 q 408 192 378 161 q 438 278 438 224 l 438 744 l 613 744 l 613 0 l 450 0 l 450 63 l 447 63 q 281 -6 381 -6 m 106 892 q 132 956 106 931 q 197 981 158 981 q 264 956 239 981 q 289 892 289 932 q 263 827 289 853 q 197 801 238 801 q 132 827 158 801 q 106 892 106 853 m 369 892 q 396 956 369 931 q 461 981 422 981 q 528 956 503 981 q 553 892 553 932 q 527 827 553 853 q 461 801 501 801 q 396 827 422 801 q 369 892 369 853 z "},"ù":{"ha":660,"x_min":44,"x_max":613,"o":"m 281 -6 q 108 61 172 -6 q 44 242 44 128 l 44 744 l 219 744 l 219 278 q 248 192 219 224 q 326 161 276 161 q 408 192 378 161 q 438 278 438 224 l 438 744 l 613 744 l 613 0 l 450 0 l 450 63 l 447 63 q 281 -6 381 -6 m 114 1024 l 310 1024 l 419 807 l 253 807 l 114 1024 z "},"ű":{"ha":660,"x_min":44,"x_max":633,"o":"m 281 -6 q 108 61 172 -6 q 44 242 44 128 l 44 744 l 219 744 l 219 278 q 248 192 219 224 q 326 161 276 161 q 408 192 378 161 q 438 278 438 224 l 438 744 l 613 744 l 613 0 l 450 0 l 450 63 l 447 63 q 281 -6 381 -6 m 144 807 l 213 1024 l 376 1024 l 281 807 l 144 807 m 367 807 l 463 1024 l 633 1024 l 508 807 l 367 807 z "},"ū":{"ha":660,"x_min":44,"x_max":613,"o":"m 281 -6 q 108 61 172 -6 q 44 242 44 128 l 44 744 l 219 744 l 219 278 q 248 192 219 224 q 326 161 276 161 q 408 192 378 161 q 438 278 438 224 l 438 744 l 613 744 l 613 0 l 450 0 l 450 63 l 447 63 q 281 -6 381 -6 m 136 821 l 136 963 l 522 963 l 522 821 l 136 821 z "},"ų":{"ha":660,"x_min":44,"x_max":613,"o":"m 281 -6 q 108 61 172 -6 q 44 242 44 128 l 44 744 l 219 744 l 219 278 q 248 192 219 224 q 326 161 276 161 q 408 192 378 161 q 438 278 438 224 l 438 744 l 613 744 l 613 0 q 549 -22 574 0 q 524 -71 524 -44 q 565 -107 524 -107 q 613 -96 586 -107 l 613 -231 q 526 -243 567 -243 q 414 -203 449 -243 q 379 -112 379 -162 q 450 15 379 -36 l 450 63 l 447 63 q 281 -6 381 -6 z "},"ů":{"ha":660,"x_min":44,"x_max":613,"o":"m 281 -6 q 108 61 172 -6 q 44 242 44 128 l 44 744 l 219 744 l 219 278 q 248 192 219 224 q 326 161 276 161 q 408 192 378 161 q 438 278 438 224 l 438 744 l 613 744 l 613 0 l 450 0 l 450 63 l 447 63 q 281 -6 381 -6 m 161 954 q 209 1071 161 1025 q 329 1117 257 1117 q 450 1071 403 1117 q 497 954 497 1025 q 450 839 497 885 q 329 793 403 793 q 209 839 257 793 q 161 954 161 885 m 264 954 q 283 907 264 925 q 329 889 301 889 q 376 907 357 889 q 394 954 394 925 q 376 1002 394 983 q 329 1021 357 1021 q 283 1002 301 1021 q 264 954 264 983 z "},"v":{"ha":651,"x_min":-11,"x_max":649,"o":"m 210 0 l -11 744 l 175 744 l 319 192 l 322 192 l 468 744 l 649 744 l 428 0 l 210 0 z "},"w":{"ha":972,"x_min":-7,"x_max":979,"o":"m 149 0 l -7 744 l 172 744 l 263 219 l 265 219 l 410 744 l 563 744 l 710 219 l 713 219 l 803 744 l 979 744 l 818 0 l 613 0 l 486 458 l 483 458 l 356 0 l 149 0 z "},"ẃ":{"ha":972,"x_min":-7,"x_max":979,"o":"m 149 0 l -7 744 l 172 744 l 263 219 l 265 219 l 410 744 l 563 744 l 710 219 l 713 219 l 803 744 l 979 744 l 818 0 l 613 0 l 486 458 l 483 458 l 356 0 l 149 0 m 399 807 l 508 1024 l 701 1024 l 563 807 l 399 807 z "},"ŵ":{"ha":972,"x_min":-7,"x_max":979,"o":"m 149 0 l -7 744 l 172 744 l 263 219 l 265 219 l 410 744 l 563 744 l 710 219 l 713 219 l 803 744 l 979 744 l 818 0 l 613 0 l 486 458 l 483 458 l 356 0 l 149 0 m 243 807 l 408 1024 l 564 1024 l 726 807 l 565 807 l 488 901 l 485 901 l 406 807 l 243 807 z "},"ẅ":{"ha":972,"x_min":-7,"x_max":979,"o":"m 149 0 l -7 744 l 172 744 l 263 219 l 265 219 l 410 744 l 563 744 l 710 219 l 713 219 l 803 744 l 979 744 l 818 0 l 613 0 l 486 458 l 483 458 l 356 0 l 149 0 m 263 892 q 289 956 263 931 q 354 981 315 981 q 421 956 396 981 q 446 892 446 932 q 420 827 446 853 q 354 801 394 801 q 289 827 315 801 q 263 892 263 853 m 526 892 q 553 956 526 931 q 618 981 579 981 q 685 956 660 981 q 710 892 710 932 q 684 827 710 853 q 618 801 658 801 q 553 827 579 801 q 526 892 526 853 z "},"ẁ":{"ha":972,"x_min":-7,"x_max":979,"o":"m 149 0 l -7 744 l 172 744 l 263 219 l 265 219 l 410 744 l 563 744 l 710 219 l 713 219 l 803 744 l 979 744 l 818 0 l 613 0 l 486 458 l 483 458 l 356 0 l 149 0 m 271 1024 l 467 1024 l 576 807 l 410 807 l 271 1024 z "},"x":{"ha":597,"x_min":-8,"x_max":606,"o":"m -7 0 l 172 382 l -8 744 l 200 744 l 307 499 l 310 499 l 418 744 l 606 744 l 426 382 l 606 0 l 404 0 l 296 263 l 293 263 l 186 0 l -7 0 z "},"y":{"ha":654,"x_min":-11,"x_max":665,"o":"m 153 -187 l 232 29 l -11 744 l 175 744 l 325 260 l 328 260 l 485 744 l 665 744 l 332 -187 l 153 -187 z "},"ý":{"ha":654,"x_min":-11,"x_max":665,"o":"m 153 -187 l 232 29 l -11 744 l 175 744 l 325 260 l 328 260 l 485 744 l 665 744 l 332 -187 l 153 -187 m 242 807 l 351 1024 l 544 1024 l 406 807 l 242 807 z "},"ŷ":{"ha":654,"x_min":-11,"x_max":665,"o":"m 153 -187 l 232 29 l -11 744 l 175 744 l 325 260 l 328 260 l 485 744 l 665 744 l 332 -187 l 153 -187 m 86 807 l 251 1024 l 407 1024 l 569 807 l 408 807 l 331 901 l 328 901 l 249 807 l 86 807 z "},"ÿ":{"ha":654,"x_min":-11,"x_max":665,"o":"m 153 -187 l 232 29 l -11 744 l 175 744 l 325 260 l 328 260 l 485 744 l 665 744 l 332 -187 l 153 -187 m 106 892 q 132 956 106 931 q 197 981 158 981 q 264 956 239 981 q 289 892 289 932 q 263 827 289 853 q 197 801 238 801 q 132 827 158 801 q 106 892 106 853 m 369 892 q 396 956 369 931 q 461 981 422 981 q 528 956 503 981 q 553 892 553 932 q 527 827 553 853 q 461 801 501 801 q 396 827 422 801 q 369 892 369 853 z "},"ỳ":{"ha":654,"x_min":-11,"x_max":665,"o":"m 153 -187 l 232 29 l -11 744 l 175 744 l 325 260 l 328 260 l 485 744 l 665 744 l 332 -187 l 153 -187 m 114 1024 l 310 1024 l 419 807 l 253 807 l 114 1024 z "},"z":{"ha":526,"x_min":19,"x_max":504,"o":"m 19 0 l 19 119 l 276 588 l 32 588 l 32 744 l 496 744 l 496 625 l 239 157 l 504 157 l 504 0 l 19 0 z "},"ź":{"ha":526,"x_min":19,"x_max":504,"o":"m 19 0 l 19 119 l 276 588 l 32 588 l 32 744 l 496 744 l 496 625 l 239 157 l 504 157 l 504 0 l 19 0 m 174 807 l 283 1024 l 476 1024 l 338 807 l 174 807 z "},"ž":{"ha":526,"x_min":18,"x_max":504,"o":"m 19 0 l 19 119 l 276 588 l 32 588 l 32 744 l 496 744 l 496 625 l 239 157 l 504 157 l 504 0 l 19 0 m 18 1024 l 179 1024 l 257 929 l 260 929 l 339 1024 l 501 1024 l 336 807 l 181 807 l 18 1024 z "},"ż":{"ha":526,"x_min":19,"x_max":504,"o":"m 19 0 l 19 119 l 276 588 l 32 588 l 32 744 l 496 744 l 496 625 l 239 157 l 504 157 l 504 0 l 19 0 m 157 906 q 186 977 157 951 q 261 1003 215 1003 q 337 977 308 1003 q 365 906 365 951 q 336 833 365 860 q 261 807 307 807 q 187 833 217 807 q 157 906 157 860 z "},"ﬁ":{"ha":679,"x_min":14,"x_max":650,"o":"m 83 793 q 140 956 83 906 q 289 1007 196 1007 q 340 1003 317 1007 q 383 994 364 1000 l 383 833 q 355 843 371 839 q 321 847 339 847 q 276 833 294 847 q 258 782 258 818 l 258 744 l 401 744 l 401 588 l 258 588 l 258 0 l 83 0 l 83 588 l 14 588 l 14 744 l 83 744 l 83 793 m 442 906 q 471 977 442 951 q 546 1003 500 1003 q 622 977 593 1003 q 650 906 650 951 q 621 833 650 860 q 546 807 592 807 q 472 833 501 807 q 442 906 442 860 m 458 0 l 458 744 l 633 744 l 633 0 l 458 0 z "},"ﬂ":{"ha":682,"x_min":14,"x_max":635,"o":"m 83 793 q 140 956 83 906 q 289 1007 196 1007 q 340 1003 317 1007 q 383 994 364 1000 l 383 833 q 355 843 371 839 q 321 847 339 847 q 276 833 294 847 q 258 782 258 818 l 258 744 l 401 744 l 401 588 l 258 588 l 258 0 l 83 0 l 83 588 l 14 588 l 14 744 l 83 744 l 83 793 m 460 0 l 460 994 l 635 994 l 635 0 l 460 0 z "},"ª":{"ha":464,"x_min":28,"x_max":428,"o":"m 182 492 q 71 534 114 492 q 28 647 28 576 q 73 759 28 719 q 186 799 118 799 q 281 769 243 799 l 283 769 l 283 790 q 259 841 283 822 q 190 860 235 860 q 128 851 160 860 q 69 829 97 843 l 69 946 q 147 968 106 960 q 232 976 189 976 q 377 931 326 976 q 428 793 428 886 l 428 497 l 293 497 l 293 532 l 290 532 q 246 503 274 514 q 182 492 218 492 m 164 650 q 183 607 164 624 q 228 590 201 590 q 273 607 256 590 q 290 650 290 624 q 273 693 290 678 q 228 708 256 708 q 183 693 201 708 q 164 650 164 678 z "},"º":{"ha":547,"x_min":22,"x_max":525,"o":"m 274 490 q 143 521 200 490 q 54 606 86 551 q 22 733 22 661 q 54 860 22 806 q 143 946 86 915 q 274 976 200 976 q 405 946 349 976 q 493 860 461 915 q 525 733 525 806 q 493 606 525 661 q 405 521 461 551 q 274 490 349 490 m 172 733 q 201 660 172 688 q 274 632 231 632 q 347 660 318 632 q 375 733 375 688 q 347 807 375 779 q 274 835 318 835 q 201 807 231 835 q 172 733 172 779 z "},"₀":{"ha":558,"x_min":35,"x_max":524,"o":"m 279 -154 q 99 -74 163 -154 q 35 154 35 7 q 99 383 35 303 q 279 464 163 464 q 460 383 396 464 q 524 154 524 303 q 460 -74 524 7 q 279 -154 396 -154 m 201 154 q 279 -6 201 -6 q 357 154 357 -6 q 279 315 357 315 q 201 154 201 315 z "},"₁":{"ha":308,"x_min":21,"x_max":246,"o":"m 90 -146 l 90 311 l 21 311 l 21 456 l 246 456 l 246 -146 l 90 -146 z "},"₂":{"ha":479,"x_min":35,"x_max":444,"o":"m 44 -146 l 44 -58 l 263 196 q 293 268 293 232 q 278 310 293 294 q 238 326 264 326 q 194 308 210 326 q 179 260 179 290 q 183 224 179 247 l 39 224 q 35 265 35 244 q 92 410 35 357 q 246 464 149 464 q 392 416 340 464 q 444 283 444 368 q 369 103 444 186 l 253 -24 l 444 -24 l 444 -146 l 44 -146 z "},"₃":{"ha":499,"x_min":35,"x_max":464,"o":"m 244 -154 q 90 -101 144 -154 q 35 46 35 -47 l 182 46 q 200 1 182 19 q 247 -17 218 -17 q 294 2 278 -17 q 311 49 311 21 q 290 99 311 81 q 232 118 268 118 l 149 118 l 149 206 l 254 325 l 47 325 l 47 456 l 442 456 l 442 354 l 319 218 q 429 158 394 204 q 464 46 464 111 q 404 -100 464 -46 q 244 -154 344 -154 z "},"₄":{"ha":517,"x_min":35,"x_max":482,"o":"m 276 -146 l 276 -60 l 35 -60 l 35 29 l 200 456 l 426 456 l 425 76 l 482 76 l 482 -60 l 425 -60 l 425 -146 l 276 -146 m 189 65 l 286 65 l 294 344 l 292 344 l 189 65 z "},"₅":{"ha":496,"x_min":35,"x_max":461,"o":"m 243 -154 q 92 -103 149 -154 q 35 38 35 -53 l 183 38 q 203 -1 185 14 q 246 -17 221 -17 q 292 4 275 -17 q 308 57 308 25 q 290 110 308 93 q 243 126 271 126 q 183 93 203 126 l 46 93 l 63 456 l 432 456 l 432 319 l 197 319 l 189 218 l 192 218 q 283 246 228 246 q 409 199 357 246 q 461 57 461 151 q 403 -95 461 -36 q 243 -154 346 -154 z "},"₆":{"ha":519,"x_min":35,"x_max":485,"o":"m 394 456 l 281 263 q 428 206 372 263 q 485 58 485 149 q 423 -94 485 -35 q 258 -154 361 -154 q 95 -96 156 -154 q 35 58 35 -37 q 49 147 35 101 q 99 251 64 192 l 221 456 l 394 456 m 189 58 q 208 5 189 26 q 260 -17 228 -17 q 310 4 292 -17 q 329 58 329 25 q 310 113 329 92 q 260 133 292 133 q 209 113 229 133 q 189 58 189 92 z "},"₇":{"ha":419,"x_min":35,"x_max":385,"o":"m 35 311 l 35 456 l 385 456 l 385 361 l 231 -146 l 68 -146 l 214 311 l 35 311 z "},"₈":{"ha":511,"x_min":35,"x_max":476,"o":"m 256 -154 q 94 -106 153 -154 q 35 24 35 -57 q 60 115 35 76 q 128 174 85 154 l 128 176 q 56 304 56 219 q 109 421 56 378 q 256 464 163 464 q 402 421 349 464 q 456 304 456 378 q 383 176 456 219 l 383 174 q 452 115 428 154 q 476 24 476 76 q 417 -106 476 -57 q 256 -154 358 -154 m 186 42 q 206 -6 186 13 q 256 -24 225 -24 q 306 -6 288 -24 q 325 42 325 13 q 306 89 325 71 q 256 107 288 107 q 206 89 225 107 q 186 42 186 71 m 196 281 q 213 240 196 257 q 256 224 229 224 q 299 240 282 224 q 315 281 315 257 q 299 320 315 304 q 256 336 283 336 q 213 320 229 336 q 196 281 196 304 z "},"₉":{"ha":519,"x_min":35,"x_max":485,"o":"m 125 -146 l 239 47 q 91 104 147 47 q 35 251 35 161 q 97 405 35 346 q 261 464 158 464 q 424 406 364 464 q 485 251 485 347 q 471 163 485 208 q 421 58 457 118 l 299 -146 l 125 -146 m 190 251 q 210 197 190 218 q 260 176 229 176 q 311 197 292 176 q 331 251 331 218 q 311 305 331 283 q 260 326 292 326 q 210 306 229 326 q 190 251 190 285 z "},"⁰":{"ha":558,"x_min":35,"x_max":524,"o":"m 279 468 q 99 549 163 468 q 35 776 35 629 q 99 1006 35 925 q 279 1086 163 1086 q 460 1006 396 1086 q 524 776 524 925 q 460 549 524 629 q 279 468 396 468 m 201 776 q 279 617 201 617 q 357 776 357 617 q 279 938 357 938 q 201 776 201 938 z "},"¹":{"ha":308,"x_min":21,"x_max":246,"o":"m 90 476 l 90 933 l 21 933 l 21 1078 l 246 1078 l 246 476 l 90 476 z "},"²":{"ha":479,"x_min":35,"x_max":444,"o":"m 44 476 l 44 564 l 263 818 q 293 890 293 854 q 278 933 293 917 q 238 949 264 949 q 194 931 210 949 q 179 882 179 913 q 183 846 179 869 l 39 846 q 35 888 35 867 q 92 1033 35 979 q 246 1086 149 1086 q 392 1038 340 1086 q 444 906 444 990 q 369 725 444 808 l 253 599 l 444 599 l 444 476 l 44 476 z "},"³":{"ha":499,"x_min":35,"x_max":464,"o":"m 244 468 q 90 522 144 468 q 35 668 35 575 l 182 668 q 200 624 182 642 q 247 606 218 606 q 294 624 278 606 q 311 671 311 643 q 290 722 311 703 q 232 740 268 740 l 149 740 l 149 828 l 254 947 l 47 947 l 47 1078 l 442 1078 l 442 976 l 319 840 q 429 780 394 826 q 464 668 464 733 q 404 522 464 576 q 244 468 344 468 z "},"⁴":{"ha":517,"x_min":35,"x_max":482,"o":"m 276 476 l 276 563 l 35 563 l 35 651 l 200 1078 l 426 1078 l 425 699 l 482 699 l 482 563 l 425 563 l 425 476 l 276 476 m 189 688 l 286 688 l 294 967 l 292 967 l 189 688 z "},"⁵":{"ha":496,"x_min":35,"x_max":461,"o":"m 243 468 q 92 519 149 468 q 35 660 35 569 l 183 660 q 203 621 185 636 q 246 606 221 606 q 292 626 275 606 q 308 679 308 647 q 290 732 308 715 q 243 749 271 749 q 183 715 203 749 l 46 715 l 63 1078 l 432 1078 l 432 942 l 197 942 l 189 840 l 192 840 q 283 868 228 868 q 409 821 357 868 q 461 679 461 774 q 403 527 461 586 q 243 468 346 468 z "},"⁶":{"ha":519,"x_min":35,"x_max":485,"o":"m 394 1078 l 281 885 q 428 828 372 885 q 485 681 485 771 q 423 528 485 588 q 258 468 361 468 q 95 526 156 468 q 35 681 35 585 q 49 769 35 724 q 99 874 64 814 l 221 1078 l 394 1078 m 189 681 q 208 627 189 649 q 260 606 228 606 q 310 626 292 606 q 329 681 329 647 q 310 735 329 714 q 260 756 292 756 q 209 735 229 756 q 189 681 189 714 z "},"⁷":{"ha":419,"x_min":35,"x_max":385,"o":"m 35 933 l 35 1078 l 385 1078 l 385 983 l 231 476 l 68 476 l 214 933 l 35 933 z "},"⁸":{"ha":511,"x_min":35,"x_max":476,"o":"m 256 468 q 94 517 153 468 q 35 646 35 565 q 60 738 35 699 q 128 796 85 776 l 128 799 q 56 926 56 842 q 109 1043 56 1000 q 256 1086 163 1086 q 402 1043 349 1086 q 456 926 456 1000 q 383 799 456 842 l 383 796 q 452 738 428 776 q 476 646 476 699 q 417 517 476 565 q 256 468 358 468 m 186 664 q 206 617 186 635 q 256 599 225 599 q 306 617 288 599 q 325 664 325 635 q 306 711 325 693 q 256 729 288 729 q 206 711 225 729 q 186 664 186 693 m 196 903 q 213 863 196 879 q 256 846 229 846 q 299 863 282 846 q 315 903 315 879 q 299 942 315 926 q 256 958 283 958 q 213 942 229 958 q 196 903 196 926 z "},"⁹":{"ha":519,"x_min":35,"x_max":485,"o":"m 125 476 l 239 669 q 91 726 147 669 q 35 874 35 783 q 97 1027 35 968 q 261 1086 158 1086 q 424 1028 364 1086 q 485 874 485 969 q 471 785 485 831 q 421 681 457 740 l 299 476 l 125 476 m 190 874 q 210 819 190 840 q 260 799 229 799 q 311 819 292 799 q 331 874 331 840 q 311 927 331 906 q 260 949 292 949 q 210 928 229 949 q 190 874 190 907 z "},"⁄":{"ha":828,"x_min":0,"x_max":828,"o":"m 0 0 l 663 969 l 828 969 l 165 0 l 0 0 z "},"½":{"ha":1157,"x_min":21,"x_max":1122,"o":"m 90 368 l 90 825 l 21 825 l 21 969 l 246 969 l 246 368 l 90 368 m 100 0 l 763 969 l 928 969 l 265 0 l 100 0 m 713 411 q 769 556 713 503 q 924 610 826 610 q 1070 562 1018 610 q 1122 429 1122 514 q 1047 249 1122 332 l 931 122 l 1122 122 l 1122 0 l 722 0 l 722 88 l 940 342 q 971 414 971 378 q 956 456 971 440 q 915 472 942 472 q 872 454 888 472 q 857 406 857 436 q 861 369 857 393 l 717 369 q 713 411 713 390 z "},"⅓":{"ha":1204,"x_min":21,"x_max":1169,"o":"m 90 368 l 90 825 l 21 825 l 21 969 l 246 969 l 246 368 l 90 368 m 100 0 l 763 969 l 928 969 l 265 0 l 100 0 m 740 192 l 888 192 q 906 147 888 165 q 953 129 924 129 q 1000 148 983 129 q 1017 194 1017 167 q 995 245 1017 226 q 938 264 974 264 l 854 264 l 854 351 l 960 471 l 753 471 l 753 601 l 1147 601 l 1147 500 l 1025 364 q 1135 303 1100 350 q 1169 192 1169 257 q 1110 46 1169 100 q 950 -8 1050 -8 q 795 45 850 -8 q 740 192 740 99 z "},"⅔":{"ha":1375,"x_min":35,"x_max":1340,"o":"m 44 368 l 44 456 l 263 710 q 293 782 293 746 q 278 824 293 808 q 238 840 264 840 q 194 822 210 840 q 179 774 179 804 q 183 738 179 761 l 39 738 q 35 779 35 758 q 92 924 35 871 q 246 978 149 978 q 392 930 340 978 q 444 797 444 882 q 369 617 444 700 l 253 490 l 444 490 l 444 368 l 44 368 m 271 0 l 933 969 l 1099 969 l 436 0 l 271 0 m 911 192 l 1058 192 q 1076 147 1058 165 q 1124 129 1094 129 q 1171 148 1154 129 q 1188 194 1188 167 q 1166 245 1188 226 q 1108 264 1144 264 l 1025 264 l 1025 351 l 1131 471 l 924 471 l 924 601 l 1318 601 l 1318 500 l 1196 364 q 1306 303 1271 350 q 1340 192 1340 257 q 1281 46 1340 100 q 1121 -8 1221 -8 q 966 45 1021 -8 q 911 192 911 99 z "},"¼":{"ha":1139,"x_min":21,"x_max":1104,"o":"m 90 368 l 90 825 l 21 825 l 21 969 l 246 969 l 246 368 l 90 368 m 100 0 l 763 969 l 928 969 l 265 0 l 100 0 m 657 86 l 657 175 l 822 601 l 1049 601 l 1047 222 l 1104 222 l 1104 86 l 1047 86 l 1047 0 l 899 0 l 899 86 l 657 86 m 811 211 l 908 211 l 917 490 l 914 490 l 811 211 z "},"¾":{"ha":1288,"x_min":35,"x_max":1253,"o":"m 244 360 q 90 413 144 360 q 35 560 35 467 l 182 560 q 200 515 182 533 q 247 497 218 497 q 294 516 278 497 q 311 563 311 535 q 290 613 311 594 q 232 632 268 632 l 149 632 l 149 719 l 254 839 l 47 839 l 47 969 l 442 969 l 442 868 l 319 732 q 429 672 394 718 q 464 560 464 625 q 404 414 464 468 q 244 360 344 360 m 249 0 l 911 969 l 1076 969 l 414 0 l 249 0 m 806 86 l 806 175 l 971 601 l 1197 601 l 1196 222 l 1253 222 l 1253 86 l 1196 86 l 1196 0 l 1047 0 l 1047 86 l 806 86 m 960 211 l 1057 211 l 1065 490 l 1063 490 l 960 211 z "},"⅛":{"ha":1161,"x_min":21,"x_max":1126,"o":"m 90 368 l 90 825 l 21 825 l 21 969 l 246 969 l 246 368 l 90 368 m 100 0 l 763 969 l 928 969 l 265 0 l 100 0 m 685 169 q 710 261 685 222 q 778 319 735 300 l 778 322 q 706 450 706 365 q 759 567 706 524 q 906 610 813 610 q 1052 567 999 610 q 1106 450 1106 524 q 1033 322 1106 365 l 1033 319 q 1102 261 1078 300 q 1126 169 1126 222 q 1067 40 1126 89 q 906 -8 1008 -8 q 744 40 803 -8 q 685 169 685 89 m 836 188 q 856 140 836 158 q 906 122 875 122 q 956 140 938 122 q 975 188 975 158 q 956 235 975 217 q 906 253 938 253 q 856 235 875 253 q 836 188 836 217 m 846 426 q 863 386 846 403 q 906 369 879 369 q 949 386 932 369 q 965 426 965 403 q 949 466 965 450 q 906 482 933 482 q 863 466 879 482 q 846 426 846 450 z "},"⅜":{"ha":1310,"x_min":35,"x_max":1275,"o":"m 244 360 q 90 413 144 360 q 35 560 35 467 l 182 560 q 200 515 182 533 q 247 497 218 497 q 294 516 278 497 q 311 563 311 535 q 290 613 311 594 q 232 632 268 632 l 149 632 l 149 719 l 254 839 l 47 839 l 47 969 l 442 969 l 442 868 l 319 732 q 429 672 394 718 q 464 560 464 625 q 404 414 464 468 q 244 360 344 360 m 249 0 l 911 969 l 1076 969 l 414 0 l 249 0 m 833 169 q 858 261 833 222 q 926 319 883 300 l 926 322 q 854 450 854 365 q 908 567 854 524 q 1054 610 961 610 q 1201 567 1147 610 q 1254 450 1254 524 q 1182 322 1254 365 l 1182 319 q 1251 261 1226 300 q 1275 169 1275 222 q 1216 40 1275 89 q 1054 -8 1157 -8 q 892 40 951 -8 q 833 169 833 89 m 985 188 q 1004 140 985 158 q 1054 122 1024 122 q 1105 140 1086 122 q 1124 188 1124 158 q 1105 235 1124 217 q 1054 253 1086 253 q 1004 235 1024 253 q 985 188 985 217 m 994 426 q 1011 386 994 403 q 1054 369 1028 369 q 1097 386 1081 369 q 1114 426 1114 403 q 1098 466 1114 450 q 1054 482 1082 482 q 1011 466 1028 482 q 994 426 994 450 z "},"⅝":{"ha":1293,"x_min":35,"x_max":1258,"o":"m 243 360 q 92 410 149 360 q 35 551 35 461 l 183 551 q 203 513 185 528 q 246 497 221 497 q 292 518 275 497 q 308 571 308 539 q 290 624 308 607 q 243 640 271 640 q 183 607 203 640 l 46 607 l 63 969 l 432 969 l 432 833 l 197 833 l 189 732 l 192 732 q 283 760 228 760 q 409 713 357 760 q 461 571 461 665 q 403 419 461 478 q 243 360 346 360 m 232 0 l 894 969 l 1060 969 l 397 0 l 232 0 m 817 169 q 842 261 817 222 q 910 319 867 300 l 910 322 q 838 450 838 365 q 891 567 838 524 q 1038 610 944 610 q 1184 567 1131 610 q 1238 450 1238 524 q 1165 322 1238 365 l 1165 319 q 1234 261 1210 300 q 1258 169 1258 222 q 1199 40 1258 89 q 1038 -8 1140 -8 q 876 40 935 -8 q 817 169 817 89 m 968 188 q 988 140 968 158 q 1038 122 1007 122 q 1088 140 1069 122 q 1107 188 1107 158 q 1088 235 1107 217 q 1038 253 1069 253 q 988 235 1007 253 q 968 188 968 217 m 978 426 q 994 386 978 403 q 1038 369 1011 369 q 1081 386 1064 369 q 1097 426 1097 403 q 1081 466 1097 450 q 1038 482 1065 482 q 994 466 1011 482 q 978 426 978 450 z "},"⅞":{"ha":1189,"x_min":35,"x_max":1154,"o":"m 35 825 l 35 969 l 385 969 l 385 875 l 231 368 l 68 368 l 214 825 l 35 825 m 128 0 l 790 969 l 956 969 l 293 0 l 128 0 m 713 169 q 738 261 713 222 q 806 319 763 300 l 806 322 q 733 450 733 365 q 787 567 733 524 q 933 610 840 610 q 1080 567 1026 610 q 1133 450 1133 524 q 1061 322 1133 365 l 1061 319 q 1130 261 1106 300 q 1154 169 1154 222 q 1095 40 1154 89 q 933 -8 1036 -8 q 772 40 831 -8 q 713 169 713 89 m 864 188 q 883 140 864 158 q 933 122 903 122 q 984 140 965 122 q 1003 188 1003 158 q 984 235 1003 217 q 933 253 965 253 q 883 235 903 253 q 864 188 864 217 m 874 426 q 890 386 874 403 q 933 369 907 369 q 976 386 960 369 q 993 426 993 403 q 977 466 993 450 q 933 482 961 482 q 890 466 907 482 q 874 426 874 450 z "}," ":{"ha":97,"x_min":0,"x_max":0,"o":""},".":{"ha":321,"x_min":44,"x_max":276,"o":"m 161 -7 q 78 26 111 -7 q 44 107 44 60 q 77 188 44 156 q 161 221 110 221 q 245 188 214 221 q 276 107 276 156 q 244 26 276 60 q 161 -7 213 -7 z "},",":{"ha":317,"x_min":44,"x_max":275,"o":"m 56 -174 q 107 -93 88 -142 q 132 1 126 -44 q 69 31 93 4 q 44 103 44 58 q 77 181 44 153 q 157 210 110 210 q 239 181 203 210 q 275 75 275 151 q 253 -33 275 22 q 183 -128 231 -87 q 57 -183 135 -169 l 56 -174 z "},":":{"ha":326,"x_min":47,"x_max":279,"o":"m 164 -7 q 80 26 113 -7 q 47 107 47 60 q 80 188 47 156 q 164 221 113 221 q 247 188 215 221 q 279 107 279 156 q 247 26 279 60 q 164 -7 215 -7 m 47 638 q 80 719 47 686 q 164 751 113 751 q 247 719 215 751 q 279 638 279 686 q 247 557 279 590 q 164 524 215 524 q 80 557 113 524 q 47 638 47 590 z "},";":{"ha":326,"x_min":47,"x_max":279,"o":"m 164 524 q 80 557 113 524 q 47 638 47 590 q 80 719 47 686 q 164 751 113 751 q 247 719 215 751 q 279 638 279 686 q 247 557 279 590 q 164 524 215 524 m 49 103 q 81 181 49 153 q 161 210 114 210 q 243 181 207 210 q 279 75 279 151 q 257 -33 279 22 q 187 -128 235 -87 q 61 -183 139 -169 l 60 -174 q 111 -93 92 -142 q 136 1 131 -44 q 73 31 97 4 q 49 103 49 58 z "},"…":{"ha":963,"x_min":44,"x_max":918,"o":"m 161 -7 q 78 26 111 -7 q 44 107 44 60 q 77 188 44 156 q 161 221 110 221 q 245 188 214 221 q 276 107 276 156 q 244 26 276 60 q 161 -7 213 -7 m 365 107 q 398 188 365 156 q 482 221 431 221 q 566 188 535 221 q 597 107 597 156 q 565 26 597 60 q 482 -7 533 -7 q 399 26 432 -7 q 365 107 365 60 m 686 107 q 719 188 686 156 q 803 221 751 221 q 887 188 856 221 q 918 107 918 156 q 886 26 918 60 q 803 -7 854 -7 q 719 26 753 -7 q 686 107 686 60 z "},"!":{"ha":279,"x_min":35,"x_max":244,"o":"m 61 244 l 49 969 l 232 969 l 219 244 l 61 244 m 35 90 q 65 163 35 136 q 140 189 96 189 q 215 163 185 189 q 244 90 244 136 q 215 19 244 44 q 140 -7 186 -7 q 65 19 94 -7 q 35 90 35 44 z "},"¡":{"ha":279,"x_min":35,"x_max":244,"o":"m 47 -187 l 60 538 l 218 538 l 231 -187 l 47 -187 m 35 692 q 64 763 35 738 q 139 789 93 789 q 215 763 185 789 q 244 692 244 738 q 214 619 244 646 q 139 593 183 593 q 65 619 94 593 q 35 692 35 646 z "},"?":{"ha":494,"x_min":28,"x_max":482,"o":"m 67 519 q 143 507 104 507 q 258 546 215 507 q 300 650 300 585 q 256 760 300 718 q 138 803 211 803 q 28 779 83 803 l 28 961 q 154 981 93 981 q 325 940 251 981 q 440 828 399 900 q 482 661 482 757 q 413 461 482 540 q 225 363 344 382 l 224 244 l 67 244 l 67 519 m 49 90 q 77 162 49 135 q 153 189 106 189 q 230 162 201 189 q 258 90 258 135 q 230 19 258 46 q 153 -7 201 -7 q 77 19 106 -7 q 49 90 49 46 z "},"¿":{"ha":489,"x_min":13,"x_max":467,"o":"m 340 -194 q 169 -154 243 -194 q 54 -42 96 -114 q 13 125 13 31 q 82 325 13 246 q 269 424 151 404 l 271 542 l 428 542 l 428 267 q 351 279 390 279 q 237 240 279 279 q 194 136 194 201 q 240 26 194 68 q 357 -17 285 -17 q 467 7 411 -17 l 467 -175 q 340 -194 401 -194 m 236 696 q 265 767 236 740 q 342 793 294 793 q 418 767 390 793 q 446 696 446 740 q 417 625 446 653 q 342 597 389 597 q 265 624 294 597 q 236 696 236 651 z "},"·":{"ha":321,"x_min":44,"x_max":276,"o":"m 161 317 q 78 350 111 317 q 44 431 44 383 q 77 512 44 479 q 161 544 110 544 q 245 512 214 544 q 276 431 276 479 q 244 350 276 383 q 161 317 213 317 z "},"•":{"ha":576,"x_min":63,"x_max":514,"o":"m 288 207 q 172 236 222 207 q 92 316 121 265 q 63 432 63 367 q 91 547 63 497 q 171 626 119 597 q 288 654 222 654 q 405 626 354 654 q 485 547 456 597 q 514 432 514 497 q 485 316 514 367 q 405 236 456 265 q 288 207 354 207 z "},"*":{"ha":797,"x_min":28,"x_max":769,"o":"m 256 400 l 115 501 l 282 706 l 28 775 l 81 939 l 325 844 l 313 1107 l 485 1107 l 471 844 l 717 939 l 769 775 l 517 707 l 682 501 l 542 400 l 400 621 l 256 400 z "},"#":{"ha":949,"x_min":44,"x_max":904,"o":"m 440 0 l 490 208 l 329 208 l 279 0 l 106 0 l 156 208 l 44 208 l 61 360 l 192 360 l 250 610 l 121 610 l 136 761 l 286 761 l 336 969 l 510 969 l 460 761 l 621 761 l 671 969 l 844 969 l 794 761 l 904 761 l 889 610 l 758 610 l 700 360 l 829 360 l 813 208 l 664 208 l 614 0 l 440 0 m 365 360 l 526 360 l 585 610 l 424 610 l 365 360 z "},"/":{"ha":582,"x_min":24,"x_max":557,"o":"m 24 -125 l 378 1057 l 557 1057 l 203 -125 l 24 -125 z "},"\\":{"ha":585,"x_min":25,"x_max":561,"o":"m 379 -125 l 25 1057 l 207 1057 l 561 -125 l 379 -125 z "},"-":{"ha":344,"x_min":22,"x_max":322,"o":"m 22 349 l 22 518 l 322 518 l 322 349 l 22 349 z "},"‐":{"ha":344,"x_min":22,"x_max":322,"o":"m 22 349 l 22 518 l 322 518 l 322 349 l 22 349 z "},"­":{"ha":344,"x_min":22,"x_max":322,"o":"m 22 349 l 22 518 l 322 518 l 322 349 l 22 349 z "},"–":{"ha":594,"x_min":22,"x_max":572,"o":"m 22 349 l 22 518 l 572 518 l 572 349 l 22 349 z "},"—":{"ha":969,"x_min":22,"x_max":947,"o":"m 22 349 l 22 518 l 947 518 l 947 349 l 22 349 z "},"_":{"ha":622,"x_min":22,"x_max":600,"o":"m 22 -187 l 22 -32 l 600 -32 l 600 -187 l 22 -187 z "},"(":{"ha":400,"x_min":58,"x_max":397,"o":"m 206 -125 q 140 21 174 -62 q 82 213 106 104 q 58 460 58 321 q 83 708 58 599 q 144 903 107 817 q 218 1057 181 989 l 397 1057 q 319 903 357 989 q 258 708 282 817 q 235 460 235 599 q 258 213 235 321 q 317 21 282 104 q 385 -125 351 -62 l 206 -125 z "},")":{"ha":400,"x_min":3,"x_max":342,"o":"m 3 -125 q 81 30 43 -56 q 142 224 118 115 q 165 472 165 333 q 142 719 165 611 q 84 911 118 828 q 15 1057 50 994 l 194 1057 q 260 911 226 994 q 318 719 294 828 q 342 472 342 611 q 317 224 342 333 q 257 30 293 115 q 182 -125 221 -56 l 3 -125 z "},"{":{"ha":479,"x_min":14,"x_max":460,"o":"m 347 -132 q 143 94 143 -132 l 143 304 q 126 375 143 354 q 67 396 110 396 l 14 396 l 14 557 l 67 557 q 126 578 110 557 q 143 649 143 599 l 143 838 q 347 1064 143 1064 q 460 1047 400 1064 l 460 886 q 422 900 442 894 q 382 906 403 906 q 328 883 346 906 q 310 813 310 861 l 310 658 q 284 533 310 572 q 210 478 258 493 l 210 475 q 284 420 258 460 q 310 294 310 381 l 310 119 q 328 49 310 71 q 382 26 346 26 q 422 32 403 26 q 460 46 442 38 l 460 -115 q 347 -132 400 -132 z "},"}":{"ha":479,"x_min":19,"x_max":465,"o":"m 132 -132 q 19 -115 81 -132 l 19 46 q 57 32 38 38 q 97 26 76 26 q 151 49 133 26 q 169 119 169 71 l 169 294 q 195 420 169 381 q 269 475 221 460 l 269 478 q 195 533 221 493 q 169 658 169 572 l 169 813 q 151 883 169 861 q 97 906 133 906 q 57 900 76 906 q 19 886 38 894 l 19 1047 q 132 1064 81 1064 q 336 838 336 1064 l 336 649 q 353 578 336 599 q 413 557 369 557 l 465 557 l 465 396 l 413 396 q 353 375 369 396 q 336 304 336 354 l 336 94 q 132 -132 336 -132 z "},"[":{"ha":360,"x_min":67,"x_max":346,"o":"m 67 -125 l 67 1057 l 346 1057 l 346 901 l 235 901 l 235 31 l 346 31 l 346 -125 l 67 -125 z "},"]":{"ha":360,"x_min":14,"x_max":293,"o":"m 14 -125 l 14 31 l 125 31 l 125 901 l 14 901 l 14 1057 l 293 1057 l 293 -125 l 14 -125 z "},"‚":{"ha":317,"x_min":44,"x_max":271,"o":"m 68 -139 q 118 -74 100 -108 q 142 -1 136 -40 q 72 25 100 -3 q 44 100 44 53 q 77 178 44 150 q 157 207 110 207 q 237 176 203 207 q 271 74 271 144 q 253 -17 271 29 q 191 -100 235 -64 q 69 -150 147 -136 l 68 -139 z "},"„":{"ha":568,"x_min":44,"x_max":522,"o":"m 319 -139 q 369 -74 351 -108 q 393 -1 388 -40 q 324 25 351 -3 q 296 100 296 53 q 328 178 296 150 q 408 207 361 207 q 488 176 454 207 q 522 74 522 144 q 504 -17 522 29 q 442 -100 486 -64 q 321 -150 399 -136 l 319 -139 m 44 100 q 77 178 44 150 q 157 207 110 207 q 237 176 203 207 q 271 74 271 144 q 253 -17 271 29 q 191 -100 235 -64 q 69 -150 147 -136 l 68 -139 q 118 -74 100 -108 q 142 -1 136 -40 q 72 25 100 -3 q 44 100 44 53 z "},"“":{"ha":568,"x_min":44,"x_max":522,"o":"m 411 669 q 331 701 365 669 q 296 804 296 732 q 315 894 296 849 q 377 976 333 940 q 497 1026 421 1013 l 500 1017 q 426 879 439 956 q 495 851 468 879 q 522 778 522 824 q 490 698 522 726 q 411 669 458 669 m 44 804 q 63 894 44 849 q 126 976 82 940 q 246 1026 169 1013 l 249 1017 q 175 879 188 956 q 244 851 217 879 q 271 778 271 824 q 239 698 271 726 q 160 669 207 669 q 79 701 114 669 q 44 804 44 732 z "},"”":{"ha":568,"x_min":44,"x_max":522,"o":"m 319 631 q 369 695 351 661 q 393 768 388 729 q 324 794 351 767 q 296 869 296 822 q 328 948 296 919 q 408 976 361 976 q 488 945 454 976 q 522 843 522 914 q 504 752 522 799 q 442 669 486 706 q 321 619 399 633 l 319 631 m 44 869 q 77 948 44 919 q 157 976 110 976 q 237 945 203 976 q 271 843 271 914 q 253 752 271 799 q 191 669 235 706 q 69 619 147 633 l 68 631 q 118 695 100 661 q 142 768 136 729 q 72 794 100 767 q 44 869 44 822 z "},"‘":{"ha":317,"x_min":44,"x_max":271,"o":"m 160 669 q 79 701 114 669 q 44 804 44 732 q 63 894 44 849 q 126 976 82 940 q 246 1026 169 1013 l 249 1017 q 175 879 188 956 q 244 851 217 879 q 271 778 271 824 q 239 698 271 726 q 160 669 207 669 z "},"’":{"ha":317,"x_min":44,"x_max":271,"o":"m 68 631 q 118 695 100 661 q 142 768 136 729 q 72 794 100 767 q 44 869 44 822 q 77 948 44 919 q 157 976 110 976 q 237 945 203 976 q 271 843 271 914 q 253 752 271 799 q 191 669 235 706 q 69 619 147 633 l 68 631 z "},"«":{"ha":690,"x_min":28,"x_max":668,"o":"m 207 75 l 28 372 l 207 669 l 386 669 l 210 375 l 390 75 l 207 75 m 306 372 l 485 669 l 664 669 l 488 375 l 668 75 l 485 75 l 306 372 z "},"»":{"ha":690,"x_min":22,"x_max":663,"o":"m 304 75 l 481 369 l 300 669 l 483 669 l 663 372 l 483 75 l 304 75 m 22 669 l 206 669 l 385 372 l 206 75 l 26 75 l 203 369 l 22 669 z "},"‹":{"ha":426,"x_min":28,"x_max":404,"o":"m 207 75 l 28 372 l 207 669 l 400 669 l 224 375 l 404 75 l 207 75 z "},"›":{"ha":426,"x_min":22,"x_max":399,"o":"m 26 75 l 203 369 l 22 669 l 219 669 l 399 372 l 219 75 l 26 75 z "},"\"":{"ha":428,"x_min":28,"x_max":400,"o":"m 46 607 l 28 969 l 189 969 l 176 607 l 46 607 m 239 969 l 400 969 l 382 607 l 251 607 l 239 969 z "},"'":{"ha":229,"x_min":28,"x_max":201,"o":"m 46 607 l 28 969 l 201 969 l 182 607 l 46 607 z "},"ƒ":{"ha":442,"x_min":0,"x_max":421,"o":"m 86 -194 q 0 -182 44 -194 l 0 -33 q 28 -40 15 -37 q 51 -43 40 -43 q 83 -33 69 -43 q 97 6 97 -24 l 97 588 l 28 588 l 28 744 l 97 744 l 97 767 q 154 930 97 879 q 304 981 211 981 q 366 976 336 981 q 421 964 396 971 l 421 794 q 336 818 374 818 q 292 803 310 818 q 275 753 275 789 l 275 744 l 415 744 l 415 588 l 275 588 l 275 13 q 222 -147 275 -100 q 86 -194 168 -194 z "},"@":{"ha":1317,"x_min":31,"x_max":1282,"o":"m 672 -201 q 336 -124 481 -201 q 111 95 192 -46 q 31 424 31 236 q 76 683 31 565 q 206 884 122 800 q 407 1014 290 968 q 665 1060 524 1060 q 990 984 851 1060 q 1205 773 1128 908 q 1282 457 1282 638 q 1215 198 1282 293 q 1025 103 1149 103 q 924 126 965 103 q 860 190 882 150 l 857 190 q 760 123 817 146 q 640 100 703 100 q 484 142 551 100 q 378 257 417 183 q 340 426 340 331 q 378 596 340 522 q 482 711 415 669 q 636 753 549 753 q 814 689 742 753 l 817 689 l 817 744 l 963 744 l 963 333 q 983 261 963 283 q 1035 239 1004 239 q 1109 292 1085 239 q 1133 438 1133 344 q 1076 694 1133 588 q 913 857 1018 800 q 665 914 807 914 q 413 853 521 914 q 245 681 304 792 q 186 424 186 571 q 247 170 186 278 q 417 3 307 63 q 675 -56 526 -56 q 967 7 832 -56 l 967 -150 q 672 -201 829 -201 m 507 426 q 551 301 507 349 q 663 253 594 253 q 770 299 731 253 q 810 426 810 346 q 770 553 810 507 q 663 600 731 600 q 551 552 594 600 q 507 426 507 504 z "},"&":{"ha":739,"x_min":13,"x_max":729,"o":"m 296 -11 q 153 21 218 -11 q 51 114 89 53 q 13 264 13 175 q 62 427 13 365 q 183 517 111 489 l 183 519 q 90 597 128 549 q 51 724 51 644 q 87 856 51 799 q 189 947 122 914 q 347 981 256 981 q 538 953 431 981 l 538 771 q 365 810 433 810 q 268 778 303 810 q 233 699 233 747 q 268 620 233 649 q 358 592 303 592 l 472 592 l 472 692 l 653 692 l 653 592 l 729 592 l 729 429 l 653 429 l 653 0 l 503 0 l 503 76 l 500 76 q 406 9 458 29 q 296 -11 354 -11 m 199 286 q 238 184 199 219 q 335 149 278 149 q 437 189 396 149 q 478 306 478 229 l 478 429 l 353 429 q 240 391 281 429 q 199 286 199 353 z "},"¶":{"ha":735,"x_min":19,"x_max":679,"o":"m 318 -187 l 318 385 q 99 463 179 385 q 19 681 19 542 q 99 893 19 817 q 318 969 178 969 l 464 969 l 464 -187 l 318 -187 m 533 -187 l 533 969 l 679 969 l 679 -187 l 533 -187 z "},"§":{"ha":543,"x_min":22,"x_max":529,"o":"m 229 -167 q 57 -131 140 -167 l 57 68 q 222 -3 147 -3 q 285 17 263 -3 q 308 71 308 36 q 244 172 308 121 l 146 254 q 22 489 22 357 q 42 594 22 546 q 97 674 63 643 q 67 730 75 703 q 58 788 58 757 q 126 945 58 888 q 307 1003 194 1003 q 367 999 336 1003 q 436 983 397 994 l 436 814 q 307 849 369 849 q 232 796 232 849 q 244 761 232 778 q 282 722 256 744 l 374 649 q 492 519 456 583 q 529 375 529 456 q 460 181 529 261 q 492 63 492 124 q 458 -56 492 -4 q 366 -137 425 -107 q 229 -167 307 -167 m 186 506 q 250 390 186 446 l 346 307 q 365 371 365 333 q 303 486 365 432 l 207 569 q 186 506 186 544 z "},"©":{"ha":1311,"x_min":31,"x_max":1281,"o":"m 656 -194 q 401 -150 517 -194 q 203 -22 286 -106 q 76 176 121 61 q 31 429 31 290 q 76 683 31 569 q 203 881 121 797 q 401 1008 286 964 q 656 1053 517 1053 q 910 1008 796 1053 q 1108 881 1025 964 q 1235 683 1190 797 q 1281 429 1281 569 q 1235 176 1281 290 q 1108 -22 1190 61 q 910 -150 1025 -106 q 656 -194 796 -194 m 186 429 q 245 176 186 285 q 410 6 304 67 q 656 -54 517 -54 q 901 7 796 -54 q 1066 177 1007 68 q 1125 429 1125 286 q 1066 682 1125 574 q 901 851 1007 790 q 656 913 796 913 q 410 852 517 913 q 245 683 304 792 q 186 429 186 574 m 333 429 q 377 609 333 532 q 497 729 421 686 q 669 772 572 772 q 760 763 715 772 q 846 733 806 753 l 846 563 q 773 605 815 588 q 681 622 731 622 q 547 569 596 622 q 499 429 499 515 q 548 290 499 344 q 682 236 597 236 q 773 254 731 236 q 846 297 815 272 l 846 125 q 760 96 806 106 q 669 86 715 86 q 494 129 569 86 q 376 249 418 172 q 333 429 333 326 z "},"®":{"ha":1033,"x_min":39,"x_max":994,"o":"m 517 125 q 270 184 378 125 q 101 349 163 243 q 39 596 39 456 q 101 842 39 736 q 270 1008 163 949 q 517 1067 378 1067 q 763 1008 656 1067 q 933 842 871 949 q 994 596 994 736 q 933 349 994 456 q 763 184 871 243 q 517 125 656 125 m 164 596 q 208 408 164 489 q 331 283 251 328 q 517 239 411 239 q 703 283 624 239 q 826 408 782 328 q 869 596 869 489 q 826 784 869 704 q 703 908 782 864 q 517 953 624 953 q 331 908 411 953 q 208 784 251 864 q 164 596 164 704 m 354 349 l 354 864 l 551 864 q 659 827 619 864 q 699 724 699 790 q 676 640 699 672 q 615 597 653 608 l 615 594 q 699 464 699 574 l 699 349 l 581 349 l 581 447 q 564 517 581 496 q 507 539 547 539 l 472 539 l 472 349 l 354 349 m 472 646 l 514 646 q 579 710 579 646 q 563 756 579 742 q 514 769 546 769 l 472 769 l 472 646 z "},"™":{"ha":1139,"x_min":33,"x_max":1089,"o":"m 421 457 l 435 969 l 663 969 l 756 632 l 758 632 l 850 969 l 1075 969 l 1089 457 l 944 457 l 940 854 l 938 854 l 818 457 l 688 457 l 569 854 l 567 854 l 561 457 l 421 457 m 33 838 l 33 969 l 378 969 l 378 838 l 275 838 l 275 457 l 136 457 l 136 838 l 33 838 z "},"°":{"ha":503,"x_min":28,"x_max":475,"o":"m 251 571 q 137 599 188 571 q 57 676 86 626 q 28 786 28 725 q 57 898 28 849 q 137 975 86 947 q 251 1003 188 1003 q 367 975 317 1003 q 446 898 417 947 q 475 786 475 849 q 446 676 475 725 q 367 599 417 626 q 251 571 317 571 m 179 786 q 200 734 179 754 q 251 714 221 714 q 303 734 283 714 q 324 786 324 754 q 303 839 324 818 q 251 860 283 860 q 200 839 221 860 q 179 786 179 818 z "},"|":{"ha":289,"x_min":63,"x_max":226,"o":"m 63 -125 l 63 1057 l 226 1057 l 226 -125 l 63 -125 z "},"¦":{"ha":281,"x_min":58,"x_max":222,"o":"m 58 578 l 58 1057 l 222 1057 l 222 578 l 58 578 m 58 -125 l 58 354 l 222 354 l 222 -125 l 58 -125 z "},"†":{"ha":496,"x_min":28,"x_max":468,"o":"m 167 331 l 167 744 l 28 744 l 28 900 l 167 900 l 167 1057 l 331 1057 l 331 900 l 468 900 l 468 744 l 331 744 l 331 331 l 167 331 z "},"‡":{"ha":497,"x_min":28,"x_max":469,"o":"m 167 331 l 167 460 l 28 460 l 28 601 l 167 601 l 167 786 l 28 786 l 28 928 l 167 928 l 167 1057 l 331 1057 l 331 928 l 469 928 l 469 786 l 331 786 l 331 601 l 469 601 l 469 460 l 331 460 l 331 331 l 167 331 z "},"¢":{"ha":532,"x_min":28,"x_max":501,"o":"m 261 0 l 269 160 q 93 274 158 189 q 28 485 28 360 q 93 695 28 610 q 269 810 158 781 l 261 969 l 425 969 l 419 822 q 501 806 458 818 l 501 631 q 390 658 443 658 q 259 612 308 658 q 210 485 210 565 q 259 358 210 404 q 390 311 308 311 q 501 339 443 311 l 501 164 q 419 147 458 151 l 425 0 l 261 0 z "},"¤":{"ha":794,"x_min":31,"x_max":764,"o":"m 399 178 q 226 224 300 178 l 138 125 l 31 232 l 131 322 q 90 485 90 392 q 131 647 90 575 l 31 738 l 138 844 l 226 746 q 306 780 263 768 q 399 792 350 792 q 490 780 447 792 q 568 746 533 768 l 657 844 l 764 738 l 664 647 q 704 485 704 578 q 664 322 704 392 l 764 232 l 657 125 l 568 224 q 490 190 533 201 q 399 178 447 178 m 242 485 q 285 367 242 413 q 399 321 329 321 q 510 367 468 321 q 553 485 553 413 q 510 603 553 557 q 399 649 468 649 q 285 603 329 649 q 242 485 242 557 z "},"$":{"ha":471,"x_min":24,"x_max":460,"o":"m 142 -139 l 147 -8 q 26 25 85 0 l 26 224 q 115 169 75 186 q 190 153 156 153 q 251 174 228 153 q 274 243 274 194 q 226 367 274 306 l 103 532 q 46 629 68 579 q 24 743 24 679 q 61 880 24 825 q 158 960 99 935 l 154 1085 l 318 1085 l 314 978 q 400 961 357 974 l 400 792 q 338 817 369 807 q 278 826 306 826 q 218 807 240 826 q 196 751 196 788 q 232 661 196 710 l 350 504 q 429 382 399 440 q 460 242 460 324 q 417 88 460 149 q 301 4 375 28 l 306 -139 l 142 -139 z "},"€":{"ha":818,"x_min":42,"x_max":792,"o":"m 628 -11 q 422 28 514 -11 q 264 142 329 68 q 168 314 199 215 l 42 314 l 42 443 l 144 443 q 143 465 143 454 q 143 485 143 475 q 143 506 143 496 q 144 526 143 517 l 42 526 l 42 656 l 168 656 q 264 828 199 756 q 422 941 329 901 q 628 981 514 981 q 792 961 710 981 l 792 767 q 706 793 749 786 q 629 800 664 800 q 477 763 543 800 q 375 656 411 725 l 654 656 l 640 526 l 338 526 q 336 506 336 517 q 336 485 336 496 q 336 465 336 475 q 338 443 336 454 l 626 443 l 613 314 l 375 314 q 477 208 411 246 q 629 169 543 169 q 706 177 664 169 q 792 203 749 185 l 792 8 q 628 -11 710 -11 z "},"£":{"ha":718,"x_min":42,"x_max":672,"o":"m 42 113 q 127 245 103 185 q 147 382 151 306 l 42 382 l 42 540 l 124 540 l 104 656 q 116 826 88 753 q 211 940 144 899 q 374 981 278 981 q 572 906 500 981 q 644 703 644 832 l 469 703 q 442 783 469 753 q 371 813 415 813 q 294 775 318 813 q 279 672 269 738 l 301 540 l 578 540 l 578 382 l 324 382 q 275 169 326 269 l 672 169 l 672 0 l 42 0 l 42 113 z "},"¥":{"ha":613,"x_min":14,"x_max":599,"o":"m 217 0 l 217 192 l 22 192 l 22 333 l 214 333 l 192 406 l 22 406 l 22 553 l 147 547 l 14 969 l 206 969 l 307 540 l 310 540 l 419 969 l 599 969 l 465 547 l 590 553 l 590 406 l 421 406 l 399 333 l 590 333 l 590 192 l 396 192 l 396 0 l 217 0 z "},"+":{"ha":767,"x_min":99,"x_max":668,"o":"m 299 147 l 299 364 l 99 364 l 99 528 l 299 528 l 299 744 l 468 744 l 468 528 l 668 528 l 668 364 l 468 364 l 468 147 l 299 147 z "},"−":{"ha":767,"x_min":99,"x_max":668,"o":"m 99 364 l 99 528 l 668 528 l 668 364 l 99 364 z "},"×":{"ha":767,"x_min":113,"x_max":654,"o":"m 535 175 l 382 328 l 231 176 l 114 293 l 265 444 l 113 597 l 232 717 l 385 564 l 536 715 l 653 599 l 501 447 l 654 294 l 535 175 z "},"÷":{"ha":767,"x_min":99,"x_max":668,"o":"m 99 364 l 99 528 l 668 528 l 668 364 l 99 364 m 279 211 q 308 283 279 257 q 383 308 338 308 q 459 283 431 308 q 488 211 488 257 q 458 139 488 165 q 383 113 429 113 q 309 139 339 113 q 279 211 279 165 m 279 682 q 308 753 279 728 q 383 779 338 779 q 459 753 431 779 q 488 682 488 728 q 458 610 488 636 q 383 583 429 583 q 309 610 339 583 q 279 682 279 636 z "},"=":{"ha":767,"x_min":99,"x_max":668,"o":"m 99 503 l 99 653 l 668 653 l 668 503 l 99 503 m 99 239 l 99 389 l 668 389 l 668 239 l 99 239 z "},">":{"ha":767,"x_min":85,"x_max":692,"o":"m 85 107 l 85 286 l 514 440 l 514 443 l 85 597 l 85 783 l 692 547 l 692 340 l 85 107 z "},"<":{"ha":767,"x_min":75,"x_max":682,"o":"m 682 107 l 75 343 l 75 550 l 682 783 l 682 604 l 253 450 l 253 447 l 682 293 l 682 107 z "},"±":{"ha":767,"x_min":99,"x_max":668,"o":"m 299 356 l 299 544 l 99 544 l 99 708 l 299 708 l 299 897 l 468 897 l 468 708 l 668 708 l 668 544 l 468 544 l 468 356 l 299 356 m 99 114 l 99 278 l 668 278 l 668 114 l 99 114 z "},"~":{"ha":744,"x_min":61,"x_max":683,"o":"m 488 356 q 397 374 436 356 q 328 411 358 393 q 268 429 297 429 q 210 358 217 429 l 61 358 q 117 525 61 465 q 257 585 174 585 q 348 567 310 585 q 417 530 386 549 q 476 511 449 511 q 535 582 528 511 l 683 582 q 627 415 683 475 q 488 356 571 356 z "},"¬":{"ha":767,"x_min":99,"x_max":668,"o":"m 499 213 l 499 429 l 99 429 l 99 593 l 668 593 l 668 213 l 499 213 z "},"^":{"ha":775,"x_min":76,"x_max":699,"o":"m 76 640 l 311 1024 l 467 1024 l 699 640 l 522 640 l 390 856 l 388 856 l 253 640 l 76 640 z "},"µ":{"ha":663,"x_min":47,"x_max":615,"o":"m 47 -187 l 47 744 l 222 744 l 222 278 q 251 192 222 224 q 329 161 279 161 q 410 192 381 161 q 440 278 440 224 l 440 744 l 615 744 l 615 0 l 453 0 l 453 63 l 450 63 q 283 -6 383 -6 q 210 3 243 -6 l 210 -187 l 47 -187 z "},"%":{"ha":958,"x_min":17,"x_max":942,"o":"m 704 -8 q 590 20 640 -8 q 510 101 539 49 q 481 221 481 153 q 544 388 481 325 q 704 451 607 451 q 865 388 801 451 q 928 221 928 325 q 899 101 928 153 q 819 20 869 49 q 704 -8 769 -8 m 17 0 l 288 429 l 465 429 l 226 0 l 17 0 m 32 750 q 95 917 32 854 q 256 981 158 981 q 416 917 353 981 q 479 750 479 854 q 450 630 479 682 q 371 549 421 578 q 256 521 321 521 q 141 549 192 521 q 61 630 90 578 q 32 750 32 682 m 190 750 q 209 692 190 711 q 256 672 228 672 q 302 692 283 672 q 321 750 321 711 q 302 809 321 789 q 256 829 283 829 q 209 809 228 829 q 190 750 190 789 m 493 540 l 732 969 l 942 969 l 671 540 l 493 540 m 639 221 q 658 163 639 182 q 704 143 676 143 q 751 163 732 143 q 769 221 769 182 q 751 280 769 260 q 704 300 732 300 q 658 280 676 300 q 639 221 639 260 z "},"‰":{"ha":1403,"x_min":17,"x_max":1389,"o":"m 697 -8 q 540 56 600 -8 q 481 221 481 119 q 540 388 481 324 q 697 451 600 451 q 854 388 794 451 q 914 221 914 324 q 854 56 914 119 q 697 -8 794 -8 m 17 0 l 288 429 l 465 429 l 226 0 l 17 0 m 32 750 q 95 917 32 854 q 256 981 158 981 q 416 917 353 981 q 479 750 479 854 q 450 630 479 682 q 371 549 421 578 q 256 521 321 521 q 141 549 192 521 q 61 630 90 578 q 32 750 32 682 m 190 750 q 209 692 190 711 q 256 672 228 672 q 302 692 283 672 q 321 750 321 711 q 302 809 321 789 q 256 829 283 829 q 209 809 228 829 q 190 750 190 789 m 493 540 l 732 969 l 942 969 l 671 540 l 493 540 m 639 221 q 656 163 639 182 q 697 143 672 143 q 739 163 722 143 q 756 221 756 182 q 739 280 756 260 q 697 300 722 300 q 656 280 672 300 q 639 221 639 260 m 956 221 q 1015 388 956 324 q 1172 451 1075 451 q 1329 388 1269 451 q 1389 221 1389 324 q 1329 56 1389 119 q 1172 -8 1269 -8 q 1015 56 1075 -8 q 956 221 956 119 m 1114 221 q 1131 163 1114 182 q 1172 143 1147 143 q 1214 163 1197 143 q 1231 221 1231 182 q 1214 280 1231 260 q 1172 300 1197 300 q 1131 280 1147 300 q 1114 221 1114 260 z "},"↑":{"ha":908,"x_min":25,"x_max":883,"o":"m 371 0 l 371 519 l 375 690 l 372 692 l 25 379 l 25 603 l 454 981 l 883 603 l 883 379 l 536 690 l 533 689 l 538 519 l 538 0 l 371 0 z "},"↗":{"ha":892,"x_min":25,"x_max":847,"o":"m 847 969 l 847 369 l 686 225 l 686 704 l 682 706 l 579 582 l 142 146 l 25 265 l 461 701 l 585 804 l 583 808 l 104 808 l 249 969 l 847 969 z "},"→":{"ha":907,"x_min":19,"x_max":900,"o":"m 299 56 l 610 403 l 608 406 l 439 401 l 19 401 l 19 568 l 439 568 l 610 564 l 611 567 l 299 914 l 522 914 l 900 485 l 522 56 l 299 56 z "},"↘":{"ha":892,"x_min":25,"x_max":847,"o":"m 249 0 l 104 161 l 583 161 l 585 165 l 461 268 l 25 704 l 142 824 l 579 388 l 682 264 l 686 265 l 686 744 l 847 600 l 847 0 l 249 0 z "},"↓":{"ha":908,"x_min":25,"x_max":883,"o":"m 538 969 l 538 450 l 533 279 l 536 278 l 883 590 l 883 367 l 454 -11 l 25 367 l 25 590 l 372 279 l 375 281 l 371 450 l 371 969 l 538 969 z "},"↙":{"ha":892,"x_min":44,"x_max":867,"o":"m 44 0 l 44 600 l 206 744 l 206 265 l 210 264 l 313 388 l 750 824 l 867 704 l 431 268 l 307 165 l 308 161 l 788 161 l 643 0 l 44 0 z "},"←":{"ha":907,"x_min":7,"x_max":888,"o":"m 608 914 l 297 567 l 299 564 l 468 568 l 888 568 l 888 401 l 468 401 l 297 406 l 296 403 l 608 56 l 385 56 l 7 485 l 385 914 l 608 914 z "},"↖":{"ha":892,"x_min":44,"x_max":867,"o":"m 643 969 l 788 808 l 308 808 l 307 804 l 431 701 l 867 265 l 750 146 l 313 582 l 210 706 l 206 704 l 206 225 l 44 369 l 44 969 l 643 969 z "},"↔":{"ha":1481,"x_min":7,"x_max":1474,"o":"m 385 56 l 7 485 l 385 914 l 608 914 l 297 567 l 299 564 l 468 568 l 1013 568 l 1183 564 l 1185 567 l 872 914 l 1096 914 l 1474 485 l 1096 56 l 872 56 l 1183 403 l 1182 406 l 1013 401 l 468 401 l 297 406 l 296 403 l 608 56 l 385 56 z "},"↕":{"ha":964,"x_min":53,"x_max":911,"o":"m 482 -222 l 53 156 l 53 379 l 400 68 l 403 69 l 399 239 l 399 678 l 403 849 l 400 850 l 53 538 l 53 761 l 482 1139 l 911 761 l 911 538 l 564 849 l 561 847 l 565 678 l 565 239 l 561 68 l 564 67 l 911 379 l 911 156 l 482 -222 z "},"̈":{"ha":0,"x_min":193,"x_max":640,"o":"m 285 801 q 219 827 246 801 q 193 892 193 853 q 219 956 193 931 q 285 981 246 981 q 351 956 326 981 q 376 892 376 932 q 351 827 376 853 q 285 801 325 801 m 457 892 q 483 956 457 931 q 549 981 510 981 q 615 956 590 981 q 640 892 640 932 q 615 827 640 853 q 549 801 589 801 q 483 827 510 801 q 457 892 457 853 z "},"̇":{"ha":0,"x_min":313,"x_max":521,"o":"m 417 807 q 342 833 372 807 q 313 906 313 860 q 342 977 313 951 q 417 1003 371 1003 q 492 977 464 1003 q 521 906 521 951 q 492 833 521 860 q 417 807 463 807 z "},"̀":{"ha":0,"x_min":201,"x_max":507,"o":"m 340 807 l 201 1024 l 397 1024 l 507 807 l 340 807 z "},"́":{"ha":0,"x_min":329,"x_max":632,"o":"m 329 807 l 439 1024 l 632 1024 l 493 807 l 329 807 z "},"̋":{"ha":0,"x_min":232,"x_max":721,"o":"m 232 807 l 300 1024 l 464 1024 l 368 807 l 232 807 m 454 807 l 550 1024 l 721 1024 l 596 807 l 454 807 z "},"̂":{"ha":0,"x_min":174,"x_max":657,"o":"m 174 807 l 339 1024 l 494 1024 l 657 807 l 496 807 l 418 901 l 415 901 l 336 807 l 174 807 z "},"̌":{"ha":0,"x_min":174,"x_max":657,"o":"m 336 807 l 174 1024 l 335 1024 l 413 929 l 415 929 l 494 1024 l 657 1024 l 492 807 l 336 807 z "},"̆":{"ha":0,"x_min":192,"x_max":639,"o":"m 414 800 q 255 859 313 800 q 192 1024 197 918 l 328 1024 q 414 928 336 928 q 501 1024 493 928 l 639 1024 q 574 858 633 917 q 414 800 515 800 z "},"̊":{"ha":0,"x_min":249,"x_max":585,"o":"m 417 793 q 297 839 344 793 q 249 954 249 885 q 297 1071 249 1025 q 417 1117 344 1117 q 538 1071 490 1117 q 585 954 585 1025 q 538 839 585 885 q 417 793 490 793 m 351 954 q 370 907 351 925 q 417 889 389 889 q 463 907 444 889 q 482 954 482 925 q 463 1002 482 983 q 417 1021 444 1021 q 370 1002 389 1021 q 351 954 351 983 z "},"̃":{"ha":0,"x_min":160,"x_max":674,"o":"m 513 807 q 438 822 469 807 q 380 853 406 838 q 331 868 354 868 q 282 810 289 868 l 160 810 q 206 948 160 899 q 321 997 253 997 q 396 982 364 997 q 453 951 428 967 q 503 936 479 936 q 551 994 544 936 l 674 994 q 628 856 674 906 q 513 807 582 807 z "},"̄":{"ha":0,"x_min":224,"x_max":610,"o":"m 224 821 l 224 963 l 610 963 l 610 821 l 224 821 z "},"̒":{"ha":0,"x_min":333,"x_max":528,"o":"m 333 807 l 386 1024 l 528 1024 l 500 807 l 333 807 z "},"̦":{"ha":0,"x_min":304,"x_max":499,"o":"m 304 -243 l 332 -56 l 499 -56 l 446 -243 l 304 -243 z "},"̧":{"ha":0,"x_min":219,"x_max":450,"o":"m 386 -215 l 219 -171 l 322 72 l 450 33 l 386 -215 z "},"̨":{"ha":0,"x_min":183,"x_max":417,"o":"m 331 -243 q 218 -203 253 -243 q 183 -112 183 -162 q 226 -9 183 -54 q 344 63 268 36 l 417 0 q 353 -22 378 0 q 328 -71 328 -44 q 369 -107 328 -107 q 417 -96 390 -107 l 417 -231 q 331 -243 371 -243 z "},"¨":{"ha":833,"x_min":193,"x_max":640,"o":"m 285 801 q 219 827 246 801 q 193 892 193 853 q 219 956 193 931 q 285 981 246 981 q 351 956 326 981 q 376 892 376 932 q 351 827 376 853 q 285 801 325 801 m 457 892 q 483 956 457 931 q 549 981 510 981 q 615 956 590 981 q 640 892 640 932 q 615 827 640 853 q 549 801 589 801 q 483 827 510 801 q 457 892 457 853 z "},"˙":{"ha":833,"x_min":313,"x_max":521,"o":"m 417 807 q 342 833 372 807 q 313 906 313 860 q 342 977 313 951 q 417 1003 371 1003 q 492 977 464 1003 q 521 906 521 951 q 492 833 521 860 q 417 807 463 807 z "},"`":{"ha":833,"x_min":201,"x_max":507,"o":"m 340 807 l 201 1024 l 397 1024 l 507 807 l 340 807 z "},"´":{"ha":833,"x_min":329,"x_max":632,"o":"m 329 807 l 439 1024 l 632 1024 l 493 807 l 329 807 z "},"˝":{"ha":833,"x_min":232,"x_max":721,"o":"m 232 807 l 300 1024 l 464 1024 l 368 807 l 232 807 m 454 807 l 550 1024 l 721 1024 l 596 807 l 454 807 z "},"ˆ":{"ha":833,"x_min":174,"x_max":657,"o":"m 174 807 l 339 1024 l 494 1024 l 657 807 l 496 807 l 418 901 l 415 901 l 336 807 l 174 807 z "},"ˇ":{"ha":833,"x_min":174,"x_max":657,"o":"m 336 807 l 174 1024 l 335 1024 l 413 929 l 415 929 l 494 1024 l 657 1024 l 492 807 l 336 807 z "},"˘":{"ha":833,"x_min":192,"x_max":639,"o":"m 414 800 q 255 859 313 800 q 192 1024 197 918 l 328 1024 q 414 928 336 928 q 501 1024 493 928 l 639 1024 q 574 858 633 917 q 414 800 515 800 z "},"˚":{"ha":833,"x_min":249,"x_max":585,"o":"m 417 793 q 297 839 344 793 q 249 954 249 885 q 297 1071 249 1025 q 417 1117 344 1117 q 538 1071 490 1117 q 585 954 585 1025 q 538 839 585 885 q 417 793 490 793 m 351 954 q 370 907 351 925 q 417 889 389 889 q 463 907 444 889 q 482 954 482 925 q 463 1002 482 983 q 417 1021 444 1021 q 370 1002 389 1021 q 351 954 351 983 z "},"˜":{"ha":833,"x_min":160,"x_max":674,"o":"m 513 807 q 438 822 469 807 q 380 853 406 838 q 331 868 354 868 q 282 810 289 868 l 160 810 q 206 948 160 899 q 321 997 253 997 q 396 982 364 997 q 453 951 428 967 q 503 936 479 936 q 551 994 544 936 l 674 994 q 628 856 674 906 q 513 807 582 807 z "},"¯":{"ha":833,"x_min":224,"x_max":610,"o":"m 224 821 l 224 963 l 610 963 l 610 821 l 224 821 z "},"¸":{"ha":833,"x_min":219,"x_max":450,"o":"m 386 -215 l 219 -171 l 322 72 l 450 33 l 386 -215 z "},"˛":{"ha":833,"x_min":183,"x_max":417,"o":"m 331 -243 q 218 -203 253 -243 q 183 -112 183 -162 q 226 -9 183 -54 q 344 63 268 36 l 417 0 q 353 -22 378 0 q 328 -71 328 -44 q 369 -107 328 -107 q 417 -96 390 -107 l 417 -231 q 331 -243 371 -243 z "}}}
